<?xml version="1.0" encoding="UTF-8" standalone="no"?>
<!-- Created with Inkscape (http://www.inkscape.org/) -->

<svg
   width="15.24mm"
   height="128.5mm"
   viewBox="0 0 15.24 128.5"
   version="1.1"
   id="svg1"
   inkscape:version="1.3.2 (091e20e, 2023-11-25)"
   sodipodi:docname="Oracle.svg"
   xmlns:inkscape="http://www.inkscape.org/namespaces/inkscape"
   xmlns:sodipodi="http://sodipodi.sourceforge.net/DTD/sodipodi-0.dtd"
   xmlns="http://www.w3.org/2000/svg"
   xmlns:svg="http://www.w3.org/2000/svg">
  <sodipodi:namedview
     id="namedview1"
     pagecolor="#ffffff"
     bordercolor="#cccccc"
     borderopacity="1"
     inkscape:showpageshadow="0"
     inkscape:pageopacity="1"
     inkscape:pagecheckerboard="0"
     inkscape:deskcolor="#d1d1d1"
     inkscape:document-units="mm"
     inkscape:zoom="1.9013729"
     inkscape:cx="39.971117"
     inkscape:cy="157.78072"
     inkscape:window-width="1512"
     inkscape:window-height="857"
     inkscape:window-x="0"
     inkscape:window-y="38"
     inkscape:window-maximized="1"
     inkscape:current-layer="svg1" />
  <defs
     id="defs1" />
  <rect
     style="fill:#0f1a20;fill-opacity:1;stroke-width:0.264583"
     id="rect1"
     width="15.24"
     height="128.5"
     x="0"
     y="0"
     ry="0"
     inkscape:label="BG" />
  <path
     d="m 5.384143,117.1917 q -0.031006,0.0655 -0.086127,0.12403 -0.051677,0.0586 -0.099908,0.11024 -0.037896,0.0379 -0.065457,0.0827 -0.027561,0.0448 -0.062012,0.0827 -0.027561,0.031 -0.055122,0.0586 -0.027561,0.0241 -0.051677,0.0551 -0.017226,0.0138 -0.034451,0.0276 -0.01378,0.0138 -0.027561,0.0345 0.051676,0.11024 0.1205784,0.19981 0.072347,0.0896 0.1481392,0.17915 0.037896,0.0448 0.075792,0.0861 0.037896,0.0379 0.065457,0.0827 0.024116,0.0517 0.048231,0.0792 0.027561,0.0241 0.048231,0.0517 0.020671,0.0345 0.034451,0.062 0.017225,0.0241 0.044786,0.0482 0,0.0172 0.020671,0.0345 0.02067,0.0138 0.027561,0.031 0,0.0172 0,0.0276 0.00345,0.0103 0.00345,0.0172 -0.010335,0.0276 -0.037896,0.0482 -0.024116,0.0172 -0.044786,0.0379 -0.034451,0 -0.058567,0.0207 -0.024116,0.0207 -0.065457,0.0207 -0.017226,0.0138 -0.027561,0.031 -0.010335,0.0138 -0.027561,0.0276 -0.027561,0 -0.051677,0.0138 -0.02067,0.0172 -0.048231,0.0241 -0.034451,-0.0207 -0.055122,-0.0517 -0.020671,-0.0344 -0.055121,-0.0517 -0.00345,-0.0172 -0.01378,-0.0276 -0.00689,-0.0138 -0.01378,-0.0276 -0.058567,-0.0655 -0.1102432,-0.1378 -0.051676,-0.0723 -0.1033529,-0.1447 -0.027561,-0.031 -0.058567,-0.0586 -0.027561,-0.031 -0.055122,-0.0655 -0.017226,-0.0207 -0.034451,-0.0482 -0.017226,-0.0276 -0.037896,-0.0517 -0.024116,-0.0207 -0.041341,-0.0482 -0.017225,-0.0276 -0.041341,-0.0448 -0.031006,0.0172 -0.055122,0.0448 -0.024116,0.0276 -0.055122,0.0482 -0.027561,0.0241 -0.055122,0.0482 -0.024116,0.0241 -0.051677,0.0448 -0.00689,0.0792 -0.00689,0.15503 0,0.0724 0,0.14469 0,0.0586 -0.00345,0.11369 0,0.0517 -0.01378,0.1068 -0.017226,0.003 -0.034451,-0.0172 -0.01378,-0.0241 -0.031006,-0.0276 -0.01378,0.003 -0.024116,0.0138 -0.00689,0.0103 -0.024116,0.003 -0.017225,0.0172 -0.051676,0.031 -0.017225,0 -0.037896,0.007 -0.020671,0.003 -0.037896,0.003 -0.027561,0 -0.037896,-0.007 -0.034451,0.0241 -0.058567,0.0241 -0.020671,0.003 -0.034451,0.003 -0.00689,-0.0241 -0.01378,-0.0448 -0.00689,-0.0241 -0.010335,-0.0517 -0.010335,-0.0138 -0.017226,-0.031 -0.00345,-0.0172 -0.010335,-0.0345 0.00345,-0.0103 0.00345,-0.0241 0,-0.0138 0,-0.0276 0,-0.0586 -0.00345,-0.11369 -0.00345,-0.0551 0.00345,-0.11369 -0.00689,-0.0172 -0.010335,-0.0344 -0.00345,-0.0172 -0.00345,-0.0345 0,-0.0103 0,-0.0241 0.00345,-0.0138 0.010335,-0.0207 -0.010335,-0.0448 -0.01378,-0.093 0,-0.0517 0,-0.0965 0,-0.0241 0.00345,-0.0482 0.00689,-0.0276 0.00689,-0.0551 0,-0.0586 -0.00689,-0.11369 -0.00689,-0.0551 -0.00689,-0.11024 0.00345,-0.0379 0.00345,-0.0586 0,-0.0207 0.00345,-0.0413 0.00345,-0.0207 -0.00345,-0.0413 0.00345,-0.0172 0.00689,-0.0241 0.00689,-0.0103 0.00689,-0.0276 0,-0.0448 0,-0.0861 0.00345,-0.0448 0.00345,-0.093 0,-0.0345 0,-0.0655 0.00345,-0.0345 0.00345,-0.0724 0,-0.031 0.00345,-0.0586 0.00689,-0.0276 0.010335,-0.0551 0.00345,-0.031 0.00345,-0.0586 0,-0.031 0,-0.0586 0,-0.0724 0,-0.14469 0,-0.0758 -0.00689,-0.14814 -0.00345,-0.0172 -0.00689,-0.0379 -0.00345,-0.0207 -0.00345,-0.0413 -0.00689,-0.0655 -0.010335,-0.13436 -0.00345,-0.0689 -0.01378,-0.1378 0.00689,-0.0103 0.00689,-0.0207 0,-0.0138 0,-0.0241 0,-0.0172 0,-0.031 0,-0.0172 -0.00345,-0.0345 0.00689,-0.007 0.01378,-0.0138 0.00689,-0.0103 0.01378,-0.0172 0.020671,0 0.041341,0.003 0.024116,0 0.041341,0.0138 0.017225,-0.007 0.037896,-0.0138 0.024116,-0.0103 0.041341,-0.0103 0.027561,0 0.041341,0.0138 0.017226,-0.007 0.017226,-0.0138 0.00345,-0.0103 0.027561,-0.0103 0.044786,-0.003 0.062012,-0.003 0.020671,0 0.037896,-0.003 0.010335,0.007 0.017226,0.0172 0.00689,0.0103 0.01378,0.0207 0.075792,0.0276 0.1205784,0.0792 0.048231,0.0482 0.106798,0.0827 0.01378,0.0103 0.027561,0.0172 0.01378,0.007 0.027561,0.0138 0.031006,0.0207 0.062012,0.0448 0.031006,0.0241 0.065457,0.0413 0.034451,0.0172 0.037896,0.0207 0.00689,0 0.010335,0.007 0.075792,0.0276 0.1343588,0.0758 0.062012,0.0448 0.1309137,0.0827 0.024116,0.0138 0.058567,0.0276 0.037896,0.0138 0.072347,0.031 0.037896,0.0138 0.068902,0.031 0.034451,0.0172 0.051676,0.0379 0.037896,0.0379 0.065457,0.0551 0.031006,0.0138 0.058567,0.0345 l 0.00345,0.093 q 0,0.0241 -0.00689,0.0448 -0.00345,0.0207 -0.00345,0.0448 0,0.0172 0.00689,0.0379 z m -0.4719783,-0.0896 q -0.037896,-0.0207 -0.075792,-0.0379 -0.037896,-0.0207 -0.065457,-0.0551 -0.024116,-0.007 -0.086127,-0.031 -0.062012,-0.0276 -0.1274686,-0.0551 -0.062012,-0.031 -0.1171333,-0.0517 -0.051677,-0.0241 -0.058567,-0.0241 -0.010335,0.003 -0.010335,0.0448 0,0.0413 0,0.0896 0,0.0482 0,0.093 0,0.0448 0,0.0551 0,0.0655 -0.00345,0.12747 -0.00345,0.062 -0.010335,0.12747 -0.00689,0.0103 -0.010335,0.0207 -0.00345,0.007 -0.00689,0.0172 -0.00689,0.0482 -0.00689,0.12746 0,0.0792 0,0.12747 0,0.0241 0,0.0448 0,0.0207 0.00345,0.0482 0.017226,0 0.024116,-0.007 0.00689,-0.0103 0.024116,-0.0172 0.044786,-0.0482 0.089572,-0.093 0.044786,-0.0448 0.093018,-0.093 0.020671,-0.0207 0.041341,-0.0448 0.02067,-0.0241 0.044786,-0.0413 0.017226,-0.0207 0.031006,-0.0379 0.01378,-0.0207 0.031006,-0.0379 0.048231,-0.0517 0.099908,-0.0999 0.051677,-0.0517 0.086127,-0.11369 0.024116,-0.0172 0.044786,-0.0551 -0.024116,-0.003 -0.034451,-0.0276 z m 2.0119371,1.2678 q 0.027561,0.0448 0.041341,0.0861 0.01378,0.0413 0.01378,0.0586 0,0.0241 -0.010335,0.0413 -0.00689,0.0138 -0.020671,0.031 -0.1378039,0.0586 -0.2756079,0.11024 -0.1343588,0.0482 -0.2756078,0.0965 -0.034451,0.0103 -0.068902,0.0241 -0.031006,0.0103 -0.068902,0.0172 -0.00689,0.007 -0.024116,0.0138 -0.017226,0.007 -0.041341,0.0138 -0.020671,0.007 -0.041341,0.0103 -0.020671,0.007 -0.027561,0.007 -0.00689,-0.0172 -0.01378,-0.0207 -0.00689,-0.003 -0.01378,-0.007 -0.017225,0 -0.024116,0.0103 -0.00345,0.0138 -0.020671,0.0207 -0.017225,0 -0.031006,0 -0.01378,0.003 -0.024116,-0.003 -0.027561,0.007 -0.051677,0.0241 -0.020671,0.0172 -0.048231,0.0241 -0.051676,-0.0138 -0.065457,-0.0138 -0.010335,0.003 -0.024116,0.007 -0.024116,-0.0207 -0.024116,-0.0586 0.00345,-0.0379 -0.017226,-0.062 0,-0.0448 -0.00689,-0.0482 -0.00689,-0.007 -0.00689,-0.0138 0,-0.0241 0.00345,-0.0448 0.00345,-0.0207 -0.00345,-0.0448 0.01378,-0.0586 0.010335,-0.11369 -0.00345,-0.0551 0.00344,-0.11024 0,-0.0172 0,-0.031 0.00345,-0.0172 0.00345,-0.0345 0,-0.0517 0.00689,-0.062 0.00689,-0.0138 0.00689,-0.031 0,-0.0241 -0.00345,-0.0448 0,-0.0241 0,-0.0517 0,-0.0482 0,-0.093 0.00345,-0.0482 0.00345,-0.0999 0,-0.13092 -0.017226,-0.26183 -0.017225,-0.13092 -0.017225,-0.26183 0,-0.15847 -0.017226,-0.3135 -0.017226,-0.15503 -0.017226,-0.31351 0,-0.0276 0,-0.0758 0,-0.0517 0,-0.10335 0,-0.0551 0,-0.10335 0.00345,-0.0482 0.00689,-0.0689 0,-0.003 0.020671,-0.0103 0.020671,-0.007 0.027561,-0.007 0.017226,0 0.027561,0.0103 0.010335,0.007 0.024116,0.0138 0.062012,-0.007 0.072347,-0.0103 0.01378,-0.007 0.02067,-0.007 0.020671,0 0.031006,0.0103 0.01378,0.0103 0.020671,0.0103 0.058567,-0.0138 0.062012,-0.003 0.00689,0.0103 0.024116,0.0103 0.044786,-0.0138 0.055122,-0.0103 0.010335,0.003 0.020671,0.003 0.017226,0 0.037896,-0.0103 0.020671,-0.0138 0.037896,-0.0207 0.058567,-0.0172 0.096463,-0.0344 0.051676,-0.031 0.075792,-0.0413 0.027561,-0.0103 0.055122,-0.0241 0.058567,-0.0241 0.1102431,-0.0482 0.055122,-0.0276 0.1136883,-0.0551 0.010335,0 0.020671,0 0.01378,-0.003 0.020671,-0.0103 0.010335,0.003 0.020671,0.003 0.01378,0 0.024116,0 0.034451,0.0138 0.044786,0.0172 0.01378,0.0207 0.024116,0.0413 0.01378,0.0172 0.031006,0.0345 0.017226,0.031 0.027561,0.031 0,0.0103 -0.010335,0.0241 -0.010335,0.0103 -0.010335,0.0207 0.027561,0.0482 0.044786,0.0896 0.017226,0.0413 0.017226,0.0586 0,0.0241 -0.00689,0.0413 -0.00689,0.0138 -0.017226,0.031 -0.1309137,0.062 -0.2652725,0.12402 -0.1309137,0.0586 -0.2687176,0.11713 -0.034451,0.0138 -0.065457,0.031 -0.031006,0.0138 -0.068902,0.0207 -0.00689,0.007 -0.031006,0.0138 -0.024116,0.003 -0.037896,0.003 0.00689,0.0586 0.00689,0.11713 0.00345,0.0551 0.00689,0.11369 0.00345,0.0482 0.010335,0.10335 0.010335,0.0517 0.017226,0.10335 0.1136882,-0.0482 0.2239313,-0.0965 0.1136882,-0.0482 0.2273765,-0.0965 0.020671,0.003 0.041341,0.007 0.024116,0.003 0.044786,0.0103 0.00689,0.007 0.01378,0.0172 0.00689,0.0103 0.017225,0.0172 -0.00345,0.0172 0.020671,0.0517 0.027561,0.0344 0.027561,0.0517 0,0.0276 0.00689,0.0345 0.00689,0.003 0.01378,0.0276 0.00345,0.0345 0,0.0379 0.017226,0.0172 0.027561,0.0344 0.010335,0.0172 0.010335,0.0413 -0.048231,0.0586 -0.096463,0.0792 -0.048231,0.0172 -0.096463,0.0379 -0.017225,0.007 -0.037896,0.0207 -0.017226,0.0103 -0.034451,0.0172 -0.027561,0.0103 -0.055122,0.0207 -0.024116,0.007 -0.051676,0.0207 -0.044786,0.0241 -0.093018,0.0551 -0.044786,0.0276 -0.093018,0.0379 -0.037896,0.0103 -0.051677,0.0241 -0.010335,0.0103 -0.037896,0.031 v 0.093 0.17225 q 0,0.0344 0,0.0724 0,0.0344 -0.00345,0.0723 -0.00689,0.0345 -0.00689,0.0586 v 0.0551 q 0.017225,-0.007 0.034451,-0.0103 0.017225,-0.007 0.034451,-0.0138 0.01378,-0.003 0.024116,-0.003 0.01378,0 0.027561,-0.007 0.017225,-0.003 0.027561,-0.007 0.010335,-0.003 0.024116,-0.0103 0.051677,-0.0276 0.079237,-0.0345 0.027561,-0.0103 0.055122,-0.0207 0.058567,-0.0207 0.1136882,-0.0413 0.055122,-0.0241 0.1102431,-0.0448 0.034451,0.007 0.048231,-0.0103 0.017226,0.003 0.027561,0.007 0.01378,0.003 0.031006,0.003 0.041341,0.0379 0.051677,0.0586 0.010335,0.0207 0.027561,0.0379 0.017225,0.031 0.024116,0.031 0,0.007 -0.010335,0.0241 -0.010335,0.0138 -0.01378,0.0241 z m 1.1231019,-2.08084 q 0.024116,0.0448 0.024116,0.10335 0,0.0517 -0.020671,0.11024 -0.020671,0.0586 -0.065457,0.0896 -0.031006,0.0689 -0.062012,0.11369 -0.027561,0.0413 -0.055122,0.0827 -0.010335,0.0241 -0.020671,0.0482 -0.010335,0.0207 -0.027561,0.0448 -0.010335,0.0172 -0.044786,0.0689 -0.034451,0.0517 -0.072347,0.11024 -0.034451,0.0551 -0.062012,0.1068 -0.027561,0.0517 -0.027561,0.0654 0,0.0138 0.031006,0.0345 0.034451,0.0207 0.044786,0.031 0.017225,0.0172 0.031006,0.0344 0.017226,0.0172 0.034451,0.0345 0.037896,0.031 0.072347,0.062 0.037896,0.031 0.075792,0.0689 0.072347,0.0655 0.1515843,0.12402 0.079237,0.0586 0.141249,0.1378 0.058567,0.0172 0.075792,0.0827 0.017226,0.0654 0.010335,0.12402 0.00689,0.0103 0.010335,0.0207 0.00689,0.0103 0.01378,0.0241 0,0.0551 -0.017225,0.0827 -0.01378,0.0241 -0.031006,0.062 -0.017225,0.0345 -0.024116,0.0689 -0.00345,0.0345 -0.020671,0.062 -0.00689,0.0103 -0.020671,0.0172 -0.010335,0.007 -0.017226,0.0207 -0.01378,0.0241 -0.024116,0.0586 -0.00689,0.031 -0.020671,0.0586 -0.010335,0.0276 -0.027561,0.0551 -0.01378,0.0276 -0.024116,0.0551 -0.00689,0.0172 -0.01378,0.0413 -0.00345,0.0241 -0.031006,0.0345 -0.017226,0.062 -0.048231,0.12058 -0.027561,0.0586 -0.044786,0.12058 -0.031006,0.0103 -0.079237,0.0379 -0.044786,0.031 -0.072347,0.031 -0.010335,0 -0.017226,-0.0103 -0.00689,-0.0103 -0.020671,-0.0172 -0.00689,-0.003 -0.020671,0 -0.010335,0.003 -0.017226,0.003 -0.017225,0 -0.027561,-0.0138 -0.00689,-0.0138 -0.020671,-0.0207 -0.010335,0.003 -0.02067,0.007 -0.010335,0.003 -0.020671,0.003 -0.024116,0 -0.027561,-0.0138 -0.00345,-0.0103 -0.020671,-0.0207 -0.041341,-0.0207 -0.048231,-0.0379 -0.00689,-0.0172 -0.020671,-0.0241 0.024116,-0.0896 0.065457,-0.16881 0.041341,-0.0827 0.079237,-0.16536 0.010335,-0.0276 0.024116,-0.0517 0.017225,-0.0241 0.031006,-0.0517 0.010335,-0.0241 0.031006,-0.062 0.020671,-0.0379 0.037896,-0.0792 0.017225,-0.0413 0.031006,-0.0758 0.01378,-0.0379 0.01378,-0.062 0,-0.0482 -0.027561,-0.0723 -0.099908,-0.0827 -0.1894804,-0.16881 -0.086127,-0.0861 -0.1825902,-0.1757 -0.062012,-0.0551 -0.1343588,-0.11369 -0.01378,-0.0103 -0.020671,-0.031 -0.00689,-0.0207 -0.020671,-0.0379 -0.00689,-0.0138 -0.020671,-0.0207 -0.01378,-0.007 -0.020671,-0.0207 -0.010335,-0.0138 -0.01378,-0.031 -0.00345,-0.0207 -0.020671,-0.031 -0.017225,-0.0172 -0.041341,-0.0207 -0.024116,-0.003 -0.041341,-0.0207 0.010335,-0.0103 0.010335,-0.0207 -0.00345,-0.0138 -0.00345,-0.0241 0,-0.0241 0.020671,-0.0344 0.020671,-0.0103 0.020671,-0.0379 0.01378,-0.0276 0.020671,-0.0344 0.037896,-0.093 0.086127,-0.17915 0.048231,-0.0861 0.099908,-0.17225 0.017225,-0.0276 0.031006,-0.0517 0.017225,-0.0276 0.034451,-0.0551 0.010335,-0.0241 0.017226,-0.0413 0.010335,-0.0207 0.027561,-0.0379 0.048231,-0.0551 0.079237,-0.10335 0.034451,-0.0482 0.051677,-0.11713 0.00345,-0.0172 0.01378,-0.0482 0.010335,-0.031 0.024116,-0.062 0.017225,-0.031 0.034451,-0.0551 0.017226,-0.0241 0.037896,-0.0241 0.017226,0 0.048231,0.0138 0.034451,0.0138 0.058567,0.0207 0.020671,0.007 0.041341,0.0138 0.024116,0.003 0.044786,0.003 0.01378,0 0.027561,-0.007 0.01378,-0.0103 0.031006,-0.0103 0.027561,0 0.051676,0.0103 0.024116,0.007 0.051677,0.0103 z m 1.6949882,2.08084 q 0.027561,0.0448 0.041341,0.0861 0.01378,0.0413 0.01378,0.0586 0,0.0241 -0.010335,0.0413 -0.00689,0.0138 -0.020671,0.031 -0.1378039,0.0586 -0.2756078,0.11024 -0.1343588,0.0482 -0.2756078,0.0965 -0.034451,0.0103 -0.068902,0.0241 -0.031006,0.0103 -0.068902,0.0172 -0.00689,0.007 -0.024116,0.0138 -0.017225,0.007 -0.041341,0.0138 -0.02067,0.007 -0.041341,0.0103 -0.020671,0.007 -0.027561,0.007 -0.00689,-0.0172 -0.01378,-0.0207 -0.00689,-0.003 -0.01378,-0.007 -0.017226,0 -0.024116,0.0103 -0.00345,0.0138 -0.020671,0.0207 -0.017225,0 -0.031006,0 -0.01378,0.003 -0.024116,-0.003 -0.027561,0.007 -0.051676,0.0241 -0.020671,0.0172 -0.048231,0.0241 -0.051676,-0.0138 -0.065457,-0.0138 -0.010335,0.003 -0.024116,0.007 -0.024116,-0.0207 -0.024116,-0.0586 0.00345,-0.0379 -0.017226,-0.062 0,-0.0448 -0.00689,-0.0482 -0.00689,-0.007 -0.00689,-0.0138 0,-0.0241 0.00345,-0.0448 0.00345,-0.0207 -0.00345,-0.0448 0.01378,-0.0586 0.010335,-0.11369 -0.00345,-0.0551 0.00345,-0.11024 0,-0.0172 0,-0.031 0.00345,-0.0172 0.00345,-0.0345 0,-0.0517 0.00689,-0.062 0.00689,-0.0138 0.00689,-0.031 0,-0.0241 -0.00345,-0.0448 0,-0.0241 0,-0.0517 0,-0.0482 0,-0.093 0.00345,-0.0482 0.00345,-0.0999 0,-0.13092 -0.017226,-0.26183 -0.017226,-0.13092 -0.017226,-0.26183 0,-0.15847 -0.017225,-0.3135 -0.017225,-0.15503 -0.017225,-0.31351 0,-0.0276 0,-0.0758 0,-0.0517 0,-0.10335 0,-0.0551 0,-0.10335 0.00345,-0.0482 0.00689,-0.0689 0,-0.003 0.02067,-0.0103 0.020671,-0.007 0.027561,-0.007 0.017226,0 0.027561,0.0103 0.010335,0.007 0.024116,0.0138 0.062012,-0.007 0.072347,-0.0103 0.01378,-0.007 0.020671,-0.007 0.020671,0 0.031006,0.0103 0.01378,0.0103 0.020671,0.0103 0.058567,-0.0138 0.062012,-0.003 0.00689,0.0103 0.024116,0.0103 0.044786,-0.0138 0.055122,-0.0103 0.010335,0.003 0.020671,0.003 0.017226,0 0.037896,-0.0103 0.020671,-0.0138 0.037896,-0.0207 0.058567,-0.0172 0.096463,-0.0344 0.051676,-0.031 0.075792,-0.0413 0.027561,-0.0103 0.055122,-0.0241 0.058567,-0.0241 0.1102431,-0.0482 0.055122,-0.0276 0.1136882,-0.0551 0.010335,0 0.020671,0 0.01378,-0.003 0.020671,-0.0103 0.010335,0.003 0.020671,0.003 0.01378,0 0.024116,0 0.034451,0.0138 0.044786,0.0172 0.01378,0.0207 0.024116,0.0413 0.01378,0.0172 0.031006,0.0345 0.017226,0.031 0.027561,0.031 0,0.0103 -0.010335,0.0241 -0.010335,0.0103 -0.010335,0.0207 0.027561,0.0482 0.044786,0.0896 0.017226,0.0413 0.017226,0.0586 0,0.0241 -0.00689,0.0413 -0.00689,0.0138 -0.017226,0.031 -0.1309137,0.062 -0.2652725,0.12402 -0.1309138,0.0586 -0.2687177,0.11713 -0.034451,0.0138 -0.065457,0.031 -0.031006,0.0138 -0.068902,0.0207 -0.00689,0.007 -0.031006,0.0138 -0.024116,0.003 -0.037896,0.003 0.00689,0.0586 0.00689,0.11713 0.00345,0.0551 0.00689,0.11369 0.00345,0.0482 0.010335,0.10335 0.010335,0.0517 0.017225,0.10335 0.1136883,-0.0482 0.2239314,-0.0965 0.1136882,-0.0482 0.2273764,-0.0965 0.020671,0.003 0.041341,0.007 0.024116,0.003 0.044786,0.0103 0.00689,0.007 0.01378,0.0172 0.00689,0.0103 0.017226,0.0172 -0.00345,0.0172 0.020671,0.0517 0.027561,0.0344 0.027561,0.0517 0,0.0276 0.00689,0.0345 0.00689,0.003 0.01378,0.0276 0.00345,0.0345 0,0.0379 0.017226,0.0172 0.027561,0.0344 0.010335,0.0172 0.010335,0.0413 -0.048231,0.0586 -0.096463,0.0792 -0.048231,0.0172 -0.096463,0.0379 -0.017226,0.007 -0.037896,0.0207 -0.017226,0.0103 -0.034451,0.0172 -0.027561,0.0103 -0.055122,0.0207 -0.024116,0.007 -0.051676,0.0207 -0.044786,0.0241 -0.093018,0.0551 -0.044786,0.0276 -0.093018,0.0379 -0.037896,0.0103 -0.051676,0.0241 -0.010335,0.0103 -0.037896,0.031 v 0.093 0.17225 q 0,0.0344 0,0.0724 0,0.0344 -0.00345,0.0723 -0.00689,0.0345 -0.00689,0.0586 v 0.0551 q 0.017226,-0.007 0.034451,-0.0103 0.017226,-0.007 0.034451,-0.0138 0.01378,-0.003 0.024116,-0.003 0.01378,0 0.027561,-0.007 0.017225,-0.003 0.027561,-0.007 0.010335,-0.003 0.024116,-0.0103 0.051676,-0.0276 0.079237,-0.0345 0.027561,-0.0103 0.055121,-0.0207 0.058567,-0.0207 0.1136883,-0.0413 0.055122,-0.0241 0.1102431,-0.0448 0.034451,0.007 0.048231,-0.0103 0.017225,0.003 0.027561,0.007 0.01378,0.003 0.031006,0.003 0.041341,0.0379 0.051676,0.0586 0.010335,0.0207 0.027561,0.0379 0.017225,0.031 0.024116,0.031 0,0.007 -0.010335,0.0241 -0.010335,0.0138 -0.01378,0.0241 z m 1.7948961,-1.98093 q -0.0069,0.0138 -0.0069,0.0276 0.0034,0.0138 0.0034,0.031 -0.0069,0.0413 0,0.0413 0.0069,0 0.0069,0.007 l -0.02412,0.0345 q 0,0.0207 -0.01034,0.0379 -0.0069,0.0172 -0.0034,0.0413 -0.01033,0.0172 -0.02067,0.0344 -0.0069,0.0172 -0.02412,0.0345 h -0.04479 q -0.0379,0 -0.08268,0.007 -0.04134,0.003 -0.08268,0.003 -0.0069,0 -0.01723,0 -0.01033,-0.003 -0.02067,-0.003 -0.0069,0 -0.01723,0.003 -0.01033,0 -0.02412,0 -0.05168,0 -0.103353,-0.003 -0.04823,-0.007 -0.103353,-0.007 -0.01378,0 -0.02756,0 -0.01378,0 -0.03101,0.003 -0.0034,0.0586 -0.0069,0.12058 0,0.0586 0,0.12058 0,0.0172 -0.0034,0.0379 -0.0034,0.0172 -0.0034,0.0344 -0.0034,0.0448 -0.0069,0.0861 0,0.0413 0,0.0861 0,0.0965 0,0.19292 0.0034,0.0965 0.0069,0.19637 0.0034,0.0517 0.0069,0.0999 0.0034,0.0482 0.0034,0.0999 0,0.11713 -0.0034,0.23427 -0.0034,0.11368 -0.0034,0.23082 0,0.0379 -0.0034,0.0724 -0.0034,0.031 -0.0034,0.0689 0,0.0792 0.0034,0.15847 0.0034,0.0792 0.0034,0.15848 0,0.0379 -0.0034,0.0758 0,0.0379 0,0.0758 -0.01722,0.0276 -0.02412,0.0482 -0.0069,0.0207 -0.04134,0.0207 -0.02412,-0.007 -0.02412,-0.0172 0.0034,-0.007 -0.0034,-0.0138 -0.03101,-0.003 -0.04823,0.003 -0.01378,0.0103 -0.03445,0.0172 -0.01033,-0.003 -0.02412,-0.003 -0.01034,0 -0.02067,0 -0.0069,0 -0.01378,0.003 -0.0069,0.007 -0.03101,0.007 -0.02067,0.003 -0.02412,-0.007 -0.0034,-0.0103 -0.02067,-0.0103 -0.01723,0.0103 -0.04134,0.0138 -0.02067,0.007 -0.04134,0.007 -0.02067,-0.0138 -0.02067,-0.0276 0.0034,-0.0103 -0.0034,-0.0241 -0.0034,-0.007 -0.01378,-0.0172 -0.0069,-0.0138 -0.01378,-0.0207 0.0069,-0.0482 0.01034,-0.0861 0.0034,-0.0379 0.0034,-0.0827 0,-0.0896 -0.0069,-0.1757 -0.0069,-0.0861 -0.0069,-0.1757 0,-0.0276 0.0069,-0.0586 0.0069,-0.031 0.0069,-0.0654 -0.0069,-0.0276 -0.0034,-0.031 0.0034,-0.007 0.0034,-0.0138 0,-0.0207 -0.0034,-0.0413 0,-0.0207 0,-0.0413 0,-0.0413 0,-0.0827 0.0034,-0.0413 0.0034,-0.0827 0,-0.0172 -0.0034,-0.0344 0,-0.0207 0,-0.0379 -0.0034,-0.031 -0.0034,-0.0655 0.0034,-0.0345 0.0034,-0.0689 0,-0.16537 -0.0069,-0.32729 -0.0034,-0.16192 -0.0034,-0.32728 0,-0.0792 0.0069,-0.16192 0.01034,-0.0827 0.01034,-0.16537 0,-0.0103 -0.0069,-0.0276 -0.0069,-0.0172 -0.01378,-0.0241 -0.01723,0 -0.03445,0 -0.01378,-0.003 -0.03101,-0.003 -0.0379,0 -0.07235,0.0103 -0.06546,0.003 -0.127469,0.0103 -0.05857,0.003 -0.120578,0.007 -0.04134,-0.003 -0.05168,0 -0.00689,0 -0.017226,0 -0.027561,0 -0.041341,-0.0138 v -0.0448 q -0.020671,-0.0413 -0.017226,-0.0448 0.00345,-0.003 0.00345,-0.0103 0,-0.0103 -0.017226,-0.0207 -0.020671,-0.0138 -0.020671,-0.0413 -0.00345,-0.0276 -0.01378,-0.0413 -0.010335,-0.0138 -0.010335,-0.0276 0,-0.0241 0.010335,-0.0551 0.031006,-0.0172 0.058567,-0.0241 0.031006,-0.007 0.068902,-0.0172 0.02067,-0.007 0.0379,-0.0138 0.01723,-0.007 0.0379,-0.0103 0.02412,-0.003 0.04823,-0.003 0.02412,0 0.04823,-0.003 0.05168,-0.0103 0.106798,-0.0172 0.05857,-0.007 0.110243,-0.007 0.04823,0 0.09646,0.0138 0.04823,0.0103 0.08613,0.0103 0.05512,0 0.103353,0.007 0.05168,0.007 0.106798,0.007 0.0069,0 0.02067,0.007 0.01723,0.003 0.0379,0.003 h 0.334175 q 0.02756,0.007 0.0379,0.003 0.01378,-0.003 0.02412,-0.003 0.02756,0 0.05168,0.003 0.02412,0.003 0.05168,0.003 0.02412,0 0.0379,-0.003 0.02756,0.003 0.05168,0.0172 0.02412,0.0103 0.05512,0.0103 0.01378,0.0103 0.02067,0.0276 0.0069,0.0138 0.02412,0.0207 z"
     id="text3"
     style="font-weight:bold;font-size:3.52778px;font-family:'Caesar Dressing';-inkscape-font-specification:'Caesar Dressing Bold';fill:#fffff0;stroke-width:0.264583"
     inkscape:label="RESET_TEXT"
     aria-label="RESET" />
  <path
     d="m 4.3849339,100.21703 q 0.00689,0.0172 0.051676,0.0758 0.044786,0.0551 0.099908,0.12403 0.058566,0.0654 0.1136879,0.12746 0.055121,0.062 0.075792,0.0896 0.065457,0.0965 0.1343585,0.18948 0.068902,0.093 0.1309133,0.19292 0.017225,0.0172 0.027561,0.0448 0.010335,0.0241 0.010335,0.0517 0,0.031 -0.017226,0.0344 -0.01378,0 -0.031006,0.007 -0.034451,0.0241 -0.062011,0.0276 -0.027561,0.003 -0.044786,0.003 -0.037896,0 -0.082682,-0.003 -0.044786,0 -0.075792,0.007 -0.010335,0.003 -0.024116,0.0103 -0.01378,0.0103 -0.02067,0.0103 -0.027561,0 -0.041341,-0.0103 -0.010335,-0.007 -0.031006,-0.0138 -0.027561,-0.031 -0.051676,-0.0655 -0.020671,-0.0345 -0.044786,-0.0689 -0.020671,-0.0241 -0.044786,-0.0413 -0.024116,-0.0207 -0.044786,-0.0482 -0.055121,-0.0792 -0.1136879,-0.15158 -0.055121,-0.0724 -0.1136879,-0.1447 -0.027561,-0.0379 -0.062012,-0.0724 -0.031006,-0.0344 -0.058566,-0.0689 -0.027561,-0.0379 -0.051676,-0.0792 -0.024116,-0.0413 -0.051676,-0.0792 -0.020671,-0.0345 -0.058566,-0.0827 -0.037896,-0.0517 -0.079237,-0.10336 -0.041341,-0.0517 -0.086127,-0.0965 -0.041341,-0.0482 -0.072347,-0.0723 0,-0.0241 -0.01378,-0.0345 -0.01378,-0.0103 -0.031006,-0.02412 -0.00689,-0.01723 -0.017225,-0.03101 -0.010335,-0.01723 -0.010335,-0.0379 0,-0.01378 0.00345,-0.02412 0.00345,-0.01033 0.00689,-0.02067 0.00689,-0.01378 0.00689,-0.02412 0.00345,-0.01378 0.010335,-0.02756 0.017225,-0.04479 0.048231,-0.07924 0.034451,-0.03445 0.051676,-0.07924 0.00345,-0.01378 0.00345,-0.02412 0,-0.01378 0.00689,-0.02756 0.010335,-0.02067 0.031006,-0.04134 0.020671,-0.02067 0.037896,-0.04479 0.017225,-0.03101 0.034451,-0.06201 0.017225,-0.03101 0.034451,-0.06201 0.048231,-0.07924 0.1067978,-0.151584 0.058566,-0.07579 0.1102428,-0.148139 0.048231,-0.0689 0.089572,-0.134358 0.041341,-0.0689 0.089572,-0.137804 0.024116,-0.03445 0.055122,-0.07579 0.031006,-0.04479 0.062011,-0.08613 0.034451,-0.04134 0.068902,-0.07579 0.034451,-0.0379 0.068902,-0.05512 0.058566,-0.0069 0.075792,0.02067 0.017225,0.02412 0.048231,0.02412 0.048231,0.01033 0.065457,0.03101 0.017225,0.02067 0.034451,0.0379 0.044786,0 0.075792,0.01723 0.031006,0.01722 0.062012,0.05168 -0.01378,0.0379 -0.037896,0.0689 -0.020671,0.03101 -0.037896,0.06546 -0.027561,0.01033 -0.041341,0.03445 -0.010335,0.02411 -0.034451,0.04134 -0.037896,0.05857 -0.075792,0.117133 -0.037896,0.05512 -0.075792,0.106797 -0.017225,0.02067 -0.041341,0.03445 -0.020671,0.01034 -0.034451,0.03445 -0.00689,0.01033 -0.010335,0.02412 -0.00344,0.01033 -0.010335,0.02067 -0.041341,0.06546 -0.093017,0.127468 -0.051676,0.06201 -0.089572,0.130914 -0.017225,0.02412 -0.027561,0.05168 -0.010335,0.02412 -0.024116,0.04823 -0.01378,0.02067 -0.041341,0.05857 -0.024116,0.0379 -0.051676,0.07924 -0.024116,0.0379 -0.044786,0.07579 -0.017226,0.03445 -0.017226,0.05857 0.00345,0.01723 0.044786,0.0689 0.041341,0.05168 0.089572,0.110245 0.051676,0.0586 0.096462,0.11024 0.048231,0.0517 0.062012,0.0655 z m 2.1118389,0.3514 q 0.024116,0.031 0.027561,0.0517 0.00689,0.0172 0.01378,0.0379 0.00689,0.0172 0.010335,0.0344 0.00689,0.0172 0.00689,0.0207 0,0.0241 -0.010335,0.0413 -0.00689,0.0138 -0.024116,0.0379 -0.1378035,0.0517 -0.272162,0.10335 -0.1343584,0.0482 -0.275607,0.0965 -0.037896,0.0103 -0.068902,0.0241 -0.031006,0.0103 -0.068902,0.0172 -0.00689,0.007 -0.024116,0.0138 -0.01378,0.003 -0.034451,0.0103 -0.02067,0.007 -0.041341,0.0138 -0.017225,0.003 -0.024116,0.003 -0.027561,0.007 -0.062012,0.007 -0.031006,-0.003 -0.062011,0 -0.017226,0.003 -0.024116,0.0172 -0.00689,0.0138 -0.017226,0.031 -0.00689,0.0138 -0.024116,0.0276 -0.017225,0.0103 -0.048231,0.0103 -0.031006,0 -0.062012,-0.003 -0.031006,-0.003 -0.065457,-0.0172 -0.00689,-0.0103 -0.00689,-0.0241 0.00345,-0.0172 -0.00345,-0.0276 -0.031006,-0.003 -0.048231,0.007 -0.017225,0.007 -0.034451,0.0103 -0.010335,-0.0138 -0.017225,-0.031 -0.00345,-0.0207 -0.017225,-0.0344 -0.00345,-0.0172 -0.00345,-0.0345 0,-0.0172 0,-0.0345 0,-0.0241 0,-0.0551 0.00345,-0.0345 0.01378,-0.0517 0.010335,-0.19637 0.010335,-0.39274 0,-0.19982 0,-0.39619 0,-0.0172 0,-0.0482 0,-0.0344 -0.00345,-0.0689 0,-0.03445 -0.00345,-0.06201 0,-0.031 -0.00345,-0.04479 0.00345,-0.02411 0.00345,-0.04479 0,-0.02412 0,-0.04823 0,-0.02067 0,-0.0379 0,-0.01723 -0.00689,-0.03445 0.00345,-0.01378 0.00345,-0.0379 0,-0.01722 -0.00345,-0.03445 -0.00345,-0.01723 -0.00345,-0.03445 0,-0.02756 0,-0.05168 0.00345,-0.02756 0.00345,-0.05512 0,-0.08957 -0.010335,-0.1757 -0.00689,-0.08957 -0.00689,-0.179145 0,-0.117133 -0.00345,-0.234265 0,-0.117133 -0.00345,-0.234266 0.01378,-0.03445 0.01378,-0.05857 0.048231,-0.02412 0.075792,-0.01722 0.027561,0.0069 0.055121,0.0069 0.017225,0 0.031006,-0.0034 0.01378,-0.0034 0.027561,-0.01034 0.017225,0.0034 0.027561,0.01034 0.01378,0.0034 0.031006,0.0034 0.051676,-0.01033 0.055121,-0.0034 0.00689,0.0069 0.017225,0.01378 0.01378,-0.0034 0.020671,-0.01033 0.010335,-0.01033 0.024116,-0.01033 0.02067,0 0.031006,0.02756 0.010335,0.02412 0.024116,0.04134 0,0.0379 0.01378,0.0689 0.00689,0.141249 0.00345,0.279052 0,0.137804 0.010335,0.275607 0.00345,0.06201 0.00689,0.130914 0.00689,0.06546 0.00689,0.127468 0,0.103352 0,0.21015 0.00344,0.103353 0.00344,0.210151 0,0.01723 0,0.03101 0.00345,0.0138 0.00345,0.031 0,0.0413 -0.00345,0.0792 -0.00344,0.0379 -0.00344,0.0758 v 0.26872 q 0,0.0344 -0.00345,0.0724 0,0.0344 0.00345,0.0689 l 0.01378,0.0413 q 0.037896,-0.0138 0.075792,-0.0276 0.041341,-0.0172 0.086127,-0.0241 0.027561,-0.007 0.051676,-0.0138 0.024116,-0.007 0.051676,-0.0138 0.048231,-0.0276 0.075792,-0.0379 0.027561,-0.0103 0.055121,-0.0207 0.058566,-0.0207 0.1136879,-0.0413 0.055121,-0.0241 0.1136879,-0.0448 0.027561,0.007 0.044786,-0.007 0.034451,0.007 0.062011,0.007 0.037896,0.0379 0.044786,0.0586 0.010335,0.0207 0.027561,0.0379 -0.00689,0.0172 0,0.0207 0.010335,0.003 0.01378,0.0172 0.01378,0.007 0.00345,0.0207 -0.010335,0.0103 -0.01378,0.0207 z m 1.9085787,-0.77859 q -0.00689,0.01378 -0.01378,0.02756 -0.00689,0.01033 -0.010335,0.02412 0.01378,0.01378 0.024116,0.03101 0.01378,0.01378 0.01378,0.031 0,0.01378 -0.00689,0.02756 -0.00345,0.01033 0,0.02067 -0.01378,0.02412 -0.031006,0.04479 -0.01378,0.0207 -0.02067,0.0448 -0.01378,0.0138 -0.024116,0.0276 -0.00689,0.0138 -0.01378,0.0276 -0.017226,0.007 -0.024116,0.0241 -0.00345,0.0138 -0.017226,0.0241 -0.00345,0.0138 -0.034451,0.0655 -0.031006,0.0517 -0.068902,0.11024 -0.037896,0.0586 -0.072347,0.11369 -0.034451,0.0551 -0.048231,0.0724 -0.00689,0.0172 -0.017225,0.0276 -0.00689,0.0103 -0.017225,0.0241 -0.00689,0.0103 -0.010335,0.0241 -0.00345,0.0103 -0.010335,0.0172 -0.00689,0.0138 -0.017225,0.0241 -0.00689,0.0103 -0.01378,0.0276 -0.034451,0.0448 -0.068902,0.1068 -0.034451,0.062 -0.065457,0.11024 -0.017226,0.0276 -0.034451,0.0551 -0.01378,0.0276 -0.031006,0.0551 -0.017225,0.0276 -0.034451,0.0517 -0.017225,0.0241 -0.034451,0.0517 -0.027561,0.0207 -0.048231,0.0517 -0.02067,0.0276 -0.048231,0.0482 -0.044786,0 -0.055121,-0.0413 -0.044786,-0.0103 -0.044786,0 0,0.0103 0,0.0172 -0.01378,0.007 -0.02067,0.0207 -0.00345,0.0138 -0.017225,0.0207 -0.027561,-0.007 -0.048231,-0.0241 -0.017225,-0.0138 -0.051676,-0.0103 -0.01378,-0.0207 -0.031006,-0.0344 -0.017225,-0.0172 -0.031006,-0.0345 -0.00689,-0.0207 -0.020671,-0.0344 -0.010335,-0.0138 -0.02067,-0.0276 -0.010335,-0.0172 -0.020671,-0.031 -0.010335,-0.0138 -0.020671,-0.0276 -0.024116,-0.031 -0.048231,-0.0586 -0.02067,-0.031 -0.037896,-0.062 -0.027561,-0.0413 -0.055121,-0.0827 -0.024116,-0.0448 -0.051676,-0.0861 -0.01378,-0.0207 -0.027561,-0.0413 -0.01378,-0.0207 -0.024116,-0.0413 -0.00689,-0.0172 -0.02067,-0.0413 -0.010335,-0.0241 -0.027561,-0.031 -0.00689,-0.0276 -0.024116,-0.0413 -0.017225,-0.0138 -0.034451,-0.0344 -0.024116,-0.0276 -0.044786,-0.0586 -0.020671,-0.0344 -0.041341,-0.0689 -0.068902,-0.0965 -0.1309134,-0.18948 -0.058566,-0.093 -0.117133,-0.19292 0.017226,-0.05512 0.017226,-0.08268 0,-0.02756 0.017225,-0.04479 0,-0.01378 0.00689,-0.04134 0.044786,-0.07579 0.086127,-0.137803 0.037896,-0.05857 0.051676,-0.09646 0.017225,-0.0379 0.034451,-0.07924 0.017225,-0.01034 0.027561,-0.02412 0.010335,-0.01722 0.027561,-0.031 0.00689,-0.0379 0.031006,-0.06201 0.024116,-0.02756 0.031006,-0.06546 0.031006,-0.02411 0.034451,-0.05512 0.044786,-0.03101 0.055121,-0.08268 0.027561,-0.02756 0.044786,-0.06201 0.020671,-0.03445 0.037896,-0.07235 0.041341,-0.03445 0.065457,-0.08957 0.020671,-0.01378 0.031006,-0.0379 0.010335,-0.02411 0.027561,-0.04134 0.027561,-0.04479 0.041341,-0.07235 0.017225,-0.03101 0.034451,-0.06201 0.024116,0 0.031006,-0.01723 0.00689,-0.01722 0.027561,-0.01378 0,-0.03101 0.017225,-0.05512 0.00689,-0.0034 0.020671,-0.0069 0.01378,-0.0069 0.01378,-0.01378 -0.00689,-0.04134 0.00345,-0.04823 0.010335,-0.0069 0.017225,-0.01378 0.037896,0.0069 0.051676,0.01034 0.01378,0.0034 0.044786,0.02411 0.034451,0 0.048231,0.01378 0.01378,0.01378 0.031006,0.02067 0.01378,0.01378 0.02067,0.02756 0.010335,0.01378 0.027561,0.02067 0.027561,0.0379 0.058566,0.08268 0.031006,0.04479 0.058567,0.08268 0.037896,0.05168 0.075792,0.09991 0.041341,0.04479 0.075792,0.09991 0.010335,0.01722 0.037896,0.06201 0.027561,0.04134 0.062011,0.08957 0.034451,0.04823 0.062012,0.08957 0.027561,0.0379 0.037896,0.04479 0.010335,0.01723 0.044786,0.06546 0.034451,0.04823 0.072347,0.103352 0.041341,0.05168 0.079237,0.09991 0.037896,0.04823 0.051676,0.06201 0.037896,0.05168 0.055121,0.08613 0.020671,0.031 0.037896,0.0689 z m -0.7889251,0.64768 q 0.037896,-0.0517 0.058567,-0.093 0.02067,-0.0413 0.041341,-0.0827 0.034451,-0.0413 0.041341,-0.0586 0.00689,-0.0172 0.017225,-0.0344 0.027561,-0.0413 0.055121,-0.0827 0.031006,-0.0413 0.048231,-0.0896 0.020671,-0.0138 0.031006,-0.0344 0.010335,-0.02067 0.031006,-0.0379 -0.02067,-0.07235 -0.048231,-0.110243 -0.027561,-0.04134 -0.055121,-0.07924 -0.010335,-0.01722 -0.02067,-0.03445 -0.010335,-0.01722 -0.020671,-0.03445 -0.01378,-0.01034 -0.024116,-0.02067 -0.00689,-0.01033 -0.017225,-0.02067 -0.00689,-0.01723 -0.020671,-0.04479 -0.01378,-0.01722 -0.027561,-0.03101 -0.01378,-0.01378 -0.024116,-0.03445 -0.01378,-0.01378 -0.034451,-0.0379 -0.020671,-0.02412 -0.044786,-0.05168 -0.020671,-0.03101 -0.037896,-0.05512 -0.017225,-0.02756 -0.027561,-0.04479 -0.00689,-0.01723 -0.01378,-0.02756 -0.00345,-0.01378 -0.010335,-0.02756 -0.017225,-0.02412 -0.034451,-0.04134 -0.017225,-0.02067 -0.034451,-0.04479 -0.010335,0.0069 -0.020671,0.01033 -0.00689,0 -0.01378,0.0069 -0.024116,0.04479 -0.055121,0.08268 -0.027561,0.0379 -0.055121,0.08268 -0.024116,0.04134 -0.048231,0.08613 -0.024116,0.04134 -0.048231,0.08268 -0.017225,0.02412 -0.034451,0.04823 -0.01378,0.02067 -0.031006,0.04823 -0.017225,0.02412 -0.031006,0.05168 -0.010335,0.02411 -0.027561,0.04823 -0.027561,0.03445 -0.044786,0.06201 -0.017225,0.02756 -0.034451,0.06546 0.010335,0.02067 0.031006,0.05857 0.024116,0.03445 0.048231,0.07235 0.024116,0.0345 0.041341,0.06551 0.020671,0.031 0.024116,0.0413 0.027561,0.0241 0.044786,0.0551 0.017225,0.0276 0.044786,0.0551 0.01378,0.0276 0.031006,0.0482 0.017225,0.0207 0.034451,0.0448 0.017225,0.0241 0.044786,0.0724 0.027561,0.0448 0.055121,0.093 0.027561,0.0482 0.055121,0.0896 0.027561,0.0413 0.044786,0.0517 0.034451,-0.0379 0.055121,-0.0827 0.024116,-0.0482 0.062012,-0.0861 z m 1.5778504,-0.22049 q 0.00689,0.0172 0.051676,0.0758 0.044786,0.0551 0.099908,0.12403 0.058566,0.0654 0.1136879,0.12746 0.055121,0.062 0.075792,0.0896 0.065457,0.0965 0.1343584,0.18948 0.068902,0.093 0.1309134,0.19292 0.017225,0.0172 0.027561,0.0448 0.010335,0.0241 0.010335,0.0517 0,0.031 -0.017225,0.0344 -0.01378,0 -0.031006,0.007 -0.034451,0.0241 -0.062012,0.0276 -0.027561,0.003 -0.044786,0.003 -0.037896,0 -0.082682,-0.003 -0.044786,0 -0.075792,0.007 -0.010335,0.003 -0.024116,0.0103 -0.01378,0.0103 -0.02067,0.0103 -0.027561,0 -0.041341,-0.0103 -0.010335,-0.007 -0.031006,-0.0138 -0.027561,-0.031 -0.051676,-0.0655 -0.02067,-0.0345 -0.044786,-0.0689 -0.020671,-0.0241 -0.044786,-0.0413 -0.024116,-0.0207 -0.044786,-0.0482 -0.055121,-0.0792 -0.1136879,-0.15158 -0.055121,-0.0724 -0.1136879,-0.1447 -0.027561,-0.0379 -0.062012,-0.0724 -0.031006,-0.0344 -0.058566,-0.0689 -0.027561,-0.0379 -0.051676,-0.0792 -0.024116,-0.0413 -0.051676,-0.0792 -0.020671,-0.0345 -0.058566,-0.0827 -0.037896,-0.0517 -0.079237,-0.10336 -0.041341,-0.0517 -0.086127,-0.0965 -0.041341,-0.0482 -0.072347,-0.0723 0,-0.0241 -0.01378,-0.0345 -0.01378,-0.0103 -0.031006,-0.02412 -0.00689,-0.01723 -0.017226,-0.03101 -0.010335,-0.01723 -0.010335,-0.0379 0,-0.01378 0.00345,-0.02412 0.00345,-0.01033 0.00689,-0.02067 0.00689,-0.01378 0.00689,-0.02412 0.00345,-0.01378 0.010335,-0.02756 0.017225,-0.04479 0.048231,-0.07924 0.034451,-0.03445 0.051676,-0.07924 0.00345,-0.01378 0.00345,-0.02412 0,-0.01378 0.00689,-0.02756 0.010335,-0.02067 0.031006,-0.04134 0.02067,-0.02067 0.037896,-0.04479 0.017226,-0.03101 0.034451,-0.06201 0.017225,-0.03101 0.034451,-0.06201 0.048231,-0.07924 0.1067977,-0.151584 0.058566,-0.07579 0.1102428,-0.148139 0.048231,-0.0689 0.089572,-0.134358 0.041341,-0.0689 0.089572,-0.137804 0.024116,-0.03445 0.055121,-0.07579 0.031006,-0.04479 0.062012,-0.08613 0.034451,-0.04134 0.068902,-0.07579 0.034451,-0.0379 0.068902,-0.05512 0.058566,-0.0069 0.075792,0.02067 0.017226,0.02412 0.048231,0.02412 0.048231,0.01033 0.065457,0.03101 0.017225,0.02067 0.034451,0.0379 0.044786,0 0.075792,0.01723 0.031006,0.01722 0.062012,0.05168 -0.01378,0.0379 -0.037896,0.0689 -0.02067,0.03101 -0.037896,0.06546 -0.027561,0.01033 -0.041341,0.03445 -0.010335,0.02411 -0.034451,0.04134 -0.037896,0.05857 -0.075792,0.117133 -0.037896,0.05512 -0.075792,0.106797 -0.017225,0.02067 -0.041341,0.03445 -0.020671,0.01034 -0.034451,0.03445 -0.00689,0.01033 -0.010335,0.02412 -0.00345,0.01033 -0.010335,0.02067 -0.041341,0.06546 -0.093017,0.127468 -0.051676,0.06201 -0.089572,0.130914 -0.017226,0.02412 -0.027561,0.05168 -0.010335,0.02412 -0.024116,0.04823 -0.01378,0.02067 -0.041341,0.05857 -0.024116,0.0379 -0.051676,0.07924 -0.024116,0.0379 -0.044786,0.07579 -0.017225,0.03445 -0.017225,0.05857 0.00345,0.01723 0.044786,0.0689 0.041341,0.05168 0.089572,0.110245 0.051676,0.0586 0.096462,0.11024 0.048231,0.0517 0.062012,0.0655 z m 2.2599782,0.9474 q -0.01723,0.0413 -0.07235,0.0689 -0.02412,-0.0138 -0.04479,-0.0344 -0.01723,-0.0172 -0.04479,-0.0276 -0.02067,-0.0413 -0.03101,-0.0482 -0.01034,-0.0103 -0.02412,-0.0138 -0.02067,-0.0172 -0.03445,-0.0413 -0.01378,-0.0241 -0.03101,-0.0413 -0.0069,-0.003 -0.02756,-0.0207 -0.01723,-0.0207 -0.0379,-0.0414 -0.02067,-0.0207 -0.0379,-0.0379 -0.01722,-0.0207 -0.02067,-0.0207 -0.03101,-0.0207 -0.05512,-0.0448 -0.0069,-0.0103 -0.01722,-0.0207 -0.0069,-0.0138 -0.01378,-0.0207 -0.02756,-0.0103 -0.04479,-0.0276 -0.01722,-0.0207 -0.03445,-0.0448 -0.01378,-0.0241 -0.03445,-0.0413 -0.01723,-0.0207 -0.04134,-0.031 -0.02412,-0.0344 -0.05857,-0.0551 -0.03445,-0.0241 -0.05857,-0.0551 -0.02067,-0.0241 -0.04479,-0.0448 -0.02412,-0.0241 -0.05168,-0.0448 -0.01378,-0.0207 -0.04479,-0.0586 -0.03101,-0.0413 -0.05512,-0.0448 -0.0034,0.0792 -0.0069,0.15847 0,0.0792 -0.0034,0.15848 0,0.0413 0,0.0861 0.0034,0.0448 0,0.0896 -0.0034,0.0172 -0.01033,0.0379 -0.0034,0.0172 -0.0034,0.0379 0,0.0413 -0.0069,0.0551 -0.0034,0.0103 -0.0069,0.0207 -0.01033,0.0345 -0.02067,0.0861 -0.0069,0.0482 -0.03445,0.0758 -0.0379,0.003 -0.05857,-0.007 -0.0069,0.007 -0.01378,0.0138 -0.0069,0.007 -0.02067,0.007 -0.0069,-0.007 -0.02412,-0.0138 -0.01378,-0.003 -0.02067,-0.003 -0.01722,0 -0.0379,0.007 -0.01722,0.007 -0.03445,0.007 -0.01723,0 -0.03101,-0.0103 -0.01034,-0.007 -0.02756,-0.007 -0.01034,0 -0.02412,0.0103 -0.01378,0.0103 -0.02756,0.0103 -0.01722,0 -0.03101,-0.007 -0.01033,-0.003 -0.02412,-0.007 0,-0.0103 0,-0.0207 0.0034,-0.0103 0,-0.0207 l -0.01378,-0.0861 q 0.0035,-0.0241 0.0069,-0.0482 0.0069,-0.0241 0.01033,-0.0448 0.0035,-0.0551 0.0035,-0.10335 0.0034,-0.0517 0.0034,-0.10335 0,-0.0896 -0.0034,-0.1757 0,-0.0861 0.0034,-0.1757 0.0035,-0.031 0.0069,-0.062 0.0069,-0.0344 0.0069,-0.0655 0,-0.0896 0.01033,-0.1757 0.01033,-0.0861 0.01722,-0.175696 0.0069,-0.0689 0.0069,-0.134359 0,-0.06546 0,-0.130913 0,-0.127468 -0.0034,-0.251491 -0.0035,-0.127469 -0.0035,-0.251492 0,-0.04134 0.0035,-0.110243 0.0034,-0.07235 -0.0069,-0.110242 0.0034,-0.09991 0,-0.19637 0.01378,-0.0069 0.01378,-0.02067 0.0035,-0.01378 0.0035,-0.02756 v -0.04823 q 0.03101,-0.03445 0.05168,-0.03445 0.01723,0 0.03445,0.0034 0.01723,0.0034 0.03445,0.01378 0.04479,-0.01034 0.05857,-0.0034 0.01378,0.0069 0.03101,0.01378 0.02756,-0.0034 0.0379,-0.02412 0.0379,0.0069 0.0379,0.01723 0,0.01033 0.0069,0.02067 0.03445,0.0034 0.04479,-0.0034 0.01378,-0.01033 0.03101,-0.01378 0.03101,0.0069 0.04134,0.01722 0,0.02067 0.01034,0.04823 0.01033,0.02412 0.01033,0.06546 0,0.03101 -0.0034,0.06201 -0.0034,0.02756 -0.0034,0.05512 0,0.04823 0.0034,0.09302 0.0034,0.04479 0.0034,0.09302 0,0.01378 -0.0034,0.02756 0,0.01033 0,0.02412 0,0.130914 0.0069,0.265272 0.0069,0.134358 0.0069,0.268717 0,0.0069 -0.0034,0.02067 -0.0034,0.01034 0.0034,0.01723 0.05857,-0.06201 0.09991,-0.130914 0.04134,-0.07235 0.08957,-0.141248 0.04134,-0.05168 0.08268,-0.124023 0.04479,-0.07235 0.07579,-0.130914 0.01378,-0.02067 0.02412,-0.04134 0.01033,-0.02067 0.02412,-0.04134 0.0069,-0.01722 0.01723,-0.03101 0.01378,-0.01722 0.02067,-0.0379 0.01723,-0.02756 0.03101,-0.05168 0.01378,-0.02756 0.03101,-0.05512 0.01723,-0.02756 0.03445,-0.04823 0.02067,-0.02412 0.0379,-0.04823 0.02756,-0.04479 0.05857,-0.08957 0.03101,-0.04823 0.05512,-0.09646 0.03445,-0.01723 0.06201,-0.0379 0.02756,-0.02412 0.05857,-0.04134 0.03445,0.04479 0.04823,0.06201 0.01722,0.01723 0.04479,0.02067 0.0069,0.01033 0.0069,0.02411 0.0034,0.01378 0.01378,0.02067 0.04134,0.0034 0.04823,0 0.01033,0.01722 0.02756,0.02756 0.02067,0.0069 0.0379,0.01378 0,0.01033 0,0.02411 0,0.01034 0.0034,0.01723 0.04134,0.01723 0.04134,0.06546 -0.06546,0.117133 -0.144694,0.22393 -0.07579,0.103353 -0.134358,0.223931 -0.01723,0.0379 -0.04134,0.07235 -0.02067,0.03445 -0.03445,0.07235 -0.02412,0.02411 -0.0379,0.05168 -0.01378,0.02412 -0.03445,0.04823 -0.01378,0.01723 -0.02756,0.0379 -0.01378,0.01723 -0.02756,0.03445 -0.02756,0.0379 -0.05168,0.07924 -0.02067,0.0379 -0.05168,0.07579 -0.02067,0.03445 -0.04823,0.0689 -0.02756,0.0379 -0.04823,0.08613 -0.01722,0.04479 -0.04479,0.08268 -0.02756,0.0413 -0.03101,0.062 0,0.0172 -0.01723,0.062 0.02412,0.0379 0.05512,0.0689 0.03101,0.031 0.06546,0.0586 0.02756,0.0379 0.06201,0.0689 0.0379,0.0276 0.07579,0.062 0.01378,0.0138 0.02412,0.0276 0.01033,0.0103 0.02412,0.0207 0.0379,0.0413 0.08957,0.0792 0.05512,0.0379 0.103353,0.0724 0.0379,0.0345 0.09302,0.0861 0.05857,0.0482 0.120578,0.10679 0.06201,0.0551 0.110243,0.1068 0.04823,0.0482 0.04823,0.062 -0.01722,0.0517 -0.04134,0.0655 -0.02067,0.0103 -0.03101,0.0344 -0.02067,0.007 -0.02067,0.0138 0,0.007 -0.01034,0.0241 -0.02412,0.0172 -0.04134,0.0413 -0.01722,0.0207 -0.03445,0.0413 -0.01378,0.007 -0.02756,0.0138 -0.01034,0.003 -0.01723,0.0172 z"
     id="text4"
     style="font-weight:bold;font-size:3.52777px;font-family:'Caesar Dressing';-inkscape-font-specification:'Caesar Dressing Bold';fill:#fffff0;stroke-width:0.264583"
     aria-label="CLOCK"
     inkscape:label="CLOCK_TEXT" />
  <path
     d="m 4.9658223,7.3217189 q -0.012402,0.024805 -0.024804,0.049609 -0.012402,0.018603 -0.018604,0.043408 0.024805,0.024805 0.043407,0.055811 0.024805,0.024805 0.024805,0.055811 0,0.024805 -0.012402,0.049609 -0.0062,0.018604 0,0.037207 -0.024805,0.043408 -0.05581,0.080615 -0.024804,0.037207 -0.037206,0.080615 -0.024805,0.024805 -0.043407,0.049609 -0.012402,0.024805 -0.024805,0.049609 -0.031005,0.012402 -0.043407,0.043408 -0.0062,0.024805 -0.031005,0.043408 -0.0062,0.024805 -0.062011,0.1178223 -0.055809,0.093018 -0.1240206,0.1984375 -0.068211,0.1054199 -0.1302216,0.2046387 -0.062011,0.099219 -0.086814,0.1302246 -0.012402,0.031006 -0.031005,0.049609 -0.012402,0.018604 -0.031005,0.043408 -0.012402,0.018603 -0.018603,0.043408 -0.0062,0.018603 -0.018603,0.031006 -0.012402,0.024805 -0.031005,0.043408 -0.012402,0.018603 -0.024804,0.049609 -0.062011,0.080615 -0.1240206,0.192236 -0.062011,0.111621 -0.1178196,0.198438 -0.031005,0.04961 -0.062011,0.09922 -0.024804,0.04961 -0.05581,0.09922 -0.031005,0.04961 -0.062011,0.09302 -0.031005,0.04341 -0.062011,0.09302 -0.049608,0.03721 -0.086814,0.09302 -0.037206,0.04961 -0.086814,0.08682 -0.080613,0 -0.099217,-0.07441 -0.080613,-0.0186 -0.080613,0 0,0.0186 0,0.03101 -0.024804,0.0124 -0.037206,0.03721 -0.0062,0.0248 -0.031005,0.03721 -0.049606,-0.0124 -0.086813,-0.04341 -0.031005,-0.02481 -0.093015,-0.0186 -0.024804,-0.03721 -0.055809,-0.06201 -0.031005,-0.03101 -0.055809,-0.06201 -0.012402,-0.03721 -0.037206,-0.06201 -0.018603,-0.0248 -0.037206,-0.04961 -0.018603,-0.03101 -0.037206,-0.05581 -0.018603,-0.0248 -0.037206,-0.04961 Q 2.7954629,9.399143 2.7520559,9.349533 2.7148499,9.293723 2.6838449,9.237912 2.6342369,9.163502 2.5846279,9.089084 2.5412209,9.008474 2.4916129,8.9340546 2.4668089,8.8968476 2.4420049,8.8596406 2.4172009,8.8224336 2.3985979,8.7852266 2.3861959,8.7542206 2.3613919,8.7108126 2.3427889,8.6674046 2.3117839,8.6550026 2.2993819,8.6053936 2.2683769,8.5805886 2.2373719,8.5557836 2.2063669,8.5185766 2.1629563,8.4689357 2.12575,8.4131252 2.0885438,8.3511135 2.0513377,8.2891017 1.927317,8.1154689 1.8156984,7.9480373 1.7102809,7.7806057 1.6048634,7.6007717 q 0.031005,-0.099219 0.031005,-0.1488281 0,-0.049609 0.031005,-0.080615 0,-0.024805 0.012402,-0.074414 0.080613,-0.1364258 0.1550258,-0.2480469 0.068211,-0.1054199 0.093015,-0.1736328 0.031005,-0.068213 0.062011,-0.142627 0.031005,-0.018604 0.049608,-0.043408 0.018603,-0.031006 0.049608,-0.05581 0.012402,-0.068213 0.05581,-0.1116211 0.043407,-0.049609 0.05581,-0.1178223 0.055809,-0.043408 0.062011,-0.099219 0.080613,-0.055811 0.099217,-0.1488282 0.049608,-0.049609 0.080613,-0.111621 0.037206,-0.062012 0.068211,-0.1302247 0.074412,-0.062012 0.1178195,-0.1612304 0.037206,-0.024805 0.05581,-0.068213 0.018603,-0.043408 0.049608,-0.074414 0.049608,-0.080615 0.074412,-0.1302246 0.031005,-0.05581 0.062011,-0.1116211 0.043407,0 0.05581,-0.031006 0.012402,-0.031006 0.049608,-0.024805 0,-0.055811 0.031005,-0.099219 0.012402,-0.0062 0.037206,-0.012402 0.024804,-0.012402 0.024804,-0.024805 -0.012402,-0.074414 0.0062,-0.086816 0.018604,-0.012402 0.031005,-0.024805 0.068211,0.012402 0.093016,0.018604 0.024804,0.0062 0.080613,0.043408 0.062011,0 0.086814,0.024805 0.024804,0.024805 0.055809,0.037207 0.024804,0.024805 0.037206,0.049609 0.018603,0.024805 0.049608,0.037207 0.049608,0.068213 0.1054176,0.1488281 0.05581,0.080615 0.1054175,0.1488281 0.068211,0.093018 0.1364227,0.179834 0.074412,0.080615 0.1364226,0.179834 0.018604,0.031006 0.068211,0.1116211 0.049608,0.074414 0.1116185,0.1612304 0.062011,0.086816 0.1116186,0.1612305 0.049608,0.068213 0.068211,0.080615 0.018604,0.031006 0.080613,0.1178223 0.062011,0.086816 0.1302217,0.1860351 0.074412,0.093018 0.1426237,0.179834 0.068212,0.086816 0.093016,0.1116211 0.068212,0.093018 0.099217,0.1550293 0.037206,0.055811 0.068212,0.1240234 z M 3.5457862,8.4875392 q 0.068211,-0.093018 0.1054175,-0.1674316 0.037206,-0.074414 0.074412,-0.1488281 0.062011,-0.074414 0.074412,-0.1054199 0.012402,-0.031006 0.031005,-0.062012 0.049608,-0.074414 0.099217,-0.1488281 0.05581,-0.074414 0.086814,-0.1612304 0.037206,-0.024805 0.05581,-0.062012 0.018604,-0.037207 0.055809,-0.068213 Q 4.091477,7.43334 4.0418687,7.3651271 3.9922604,7.2907131 3.9426522,7.2225002 3.9240491,7.1914943 3.905446,7.1604885 3.8868429,7.1294826 3.8682398,7.0984768 3.8434357,7.0798732 3.8248326,7.0612697 3.8124306,7.0426662 3.7938274,7.0240627 3.7814254,6.9930568 3.7566212,6.9434475 3.7318171,6.9124416 3.707013,6.8876369 3.682209,6.8628319 3.663606,6.8256249 3.638802,6.8008199 3.601596,6.7574119 3.56439,6.7140039 3.520983,6.6643939 3.483777,6.6085829 3.452772,6.5651749 3.421767,6.5155659 3.403164,6.4845599 3.390762,6.4535539 3.378359,6.4349509 3.372159,6.4101459 3.359756,6.3853419 3.328751,6.3419339 3.297745,6.3109279 3.26674,6.2737209 3.235734,6.2303129 3.21713,6.2427149 3.198528,6.2489169 q -0.012402,0 -0.024805,0.012402 Q 3.130316,6.3419339 3.074506,6.410147 3.024898,6.47836 2.975289,6.5589751 2.931882,6.6333891 2.888475,6.7140044 2.845068,6.7884184 2.801661,6.8628325 2.770656,6.9062405 2.73965,6.9496485 2.714845,6.9868555 2.683841,7.0364645 2.652836,7.0798725 2.628031,7.1294825 2.609427,7.1728905 2.578423,7.2162985 2.528815,7.2783105 2.49781,7.3279196 2.466805,7.3775286 2.435799,7.4457419 q 0.018604,0.037207 0.05581,0.1054199 0.043407,0.062012 0.086814,0.1302246 0.043407,0.062012 0.074412,0.1178223 0.037206,0.05581 0.043407,0.074414 0.049608,0.043408 0.080613,0.099219 0.031005,0.049609 0.080613,0.099219 0.024805,0.049609 0.05581,0.086816 0.031005,0.037207 0.06201,0.080615 0.031005,0.043408 0.080613,0.1302246 0.049608,0.080615 0.099217,0.1674316 0.049608,0.086816 0.099217,0.1612305 0.049608,0.074414 0.080613,0.093018 Q 3.396959,8.7231834 3.434165,8.6425682 3.477572,8.5557522 3.545783,8.4875388 Z M 8.084941,6.7946193 Q 8.029132,6.9124416 7.9299152,7.0178615 7.8368992,7.1232814 7.7500852,7.216299 7.6818742,7.284512 7.6322657,7.3651271 q -0.049608,0.080615 -0.1116186,0.1488282 -0.049608,0.055811 -0.099217,0.1054199 -0.049608,0.043408 -0.093016,0.099219 -0.031005,0.024805 -0.062011,0.049609 -0.024804,0.024805 -0.049608,0.062012 0.093016,0.1984375 0.2170361,0.359668 0.1302217,0.1612305 0.2666444,0.3224609 0.068211,0.080615 0.1364227,0.1550293 0.068211,0.068213 0.1178195,0.1488281 0.043407,0.093018 0.086814,0.142627 0.049608,0.043408 0.086814,0.093018 0.037206,0.06201 0.062011,0.111622 0.031005,0.04341 0.080613,0.08682 0,0.03101 0.037206,0.06201 0.037206,0.02481 0.049608,0.05581 0,0.03101 0,0.04961 0.0062,0.0186 0.0062,0.03101 -0.018603,0.04961 -0.068211,0.08682 -0.043407,0.03101 -0.080613,0.06821 -0.062011,0 -0.1054175,0.03721 -0.043407,0.03721 -0.1178196,0.03721 -0.031005,0.0248 -0.049608,0.05581 -0.018604,0.02481 -0.049608,0.04961 -0.049608,0 -0.093016,0.02481 -0.037206,0.03101 -0.086814,0.04341 -0.062008,-0.03721 -0.099214,-0.09302 -0.037206,-0.06201 -0.099216,-0.09302 -0.0062,-0.03101 -0.024804,-0.04961 -0.012402,-0.0248 -0.024804,-0.04961 -0.1054175,-0.117822 -0.198433,-0.248046 -0.093015,-0.130224 -0.1860309,-0.260449 -0.049608,-0.05581 -0.1054175,-0.1054204 -0.049608,-0.055811 -0.099216,-0.1178222 -0.031005,-0.037207 -0.06201,-0.086816 -0.031005,-0.049609 -0.068211,-0.093018 -0.043407,-0.037207 -0.074412,-0.086816 -0.031005,-0.049609 -0.074412,-0.080615 -0.055809,0.031006 -0.099217,0.080615 -0.043407,0.049609 -0.099217,0.086816 -0.049608,0.043408 -0.099217,0.086816 -0.043407,0.043408 -0.093016,0.080615 -0.012402,0.142627 -0.012402,0.2790526 0,0.130225 0,0.260449 0,0.10542 -0.0062,0.204639 0,0.09302 -0.024805,0.192236 -0.031005,0.0062 -0.062011,-0.03101 -0.024804,-0.04341 -0.05581,-0.04961 -0.024804,0.0062 -0.043407,0.02481 -0.012402,0.0186 -0.043407,0.0062 -0.031005,0.03101 -0.093016,0.05581 -0.031005,0 -0.068212,0.0124 -0.037206,0.0062 -0.068211,0.0062 -0.049608,0 -0.068212,-0.0124 -0.062011,0.04341 -0.1054176,0.04341 -0.037206,0.0062 -0.062011,0.0062 -0.012402,-0.04341 -0.024804,-0.08061 -0.012402,-0.04341 -0.018604,-0.09302 -0.018604,-0.02481 -0.031005,-0.05581 -0.0062,-0.03101 -0.018604,-0.06201 0.0062,-0.0186 0.0062,-0.04341 0,-0.0248 0,-0.04961 0,-0.105419 -0.0062,-0.204638 -0.0062,-0.09922 0.0062,-0.204639 -0.012402,-0.031006 -0.018604,-0.062012 -0.0062,-0.031006 -0.0062,-0.062012 0,-0.018604 0,-0.043408 0.0062,-0.024805 0.018603,-0.037207 -0.018603,-0.080615 -0.024804,-0.1674316 0,-0.093018 0,-0.1736328 0,-0.043408 0.0062,-0.086816 0.012402,-0.049609 0.012402,-0.099219 0,-0.1054199 -0.012402,-0.2046387 -0.012402,-0.099219 -0.012402,-0.1984375 0.0062,-0.068213 0.0062,-0.1054199 0,-0.037207 0.0062,-0.074414 0.0062,-0.037207 -0.0062,-0.074414 0.0062,-0.031006 0.012402,-0.043408 0.012402,-0.018604 0.012402,-0.049609 0,-0.080615 0,-0.1550293 0.0062,-0.080615 0.0062,-0.1674316 0,-0.062012 0,-0.1178223 0.0062,-0.062012 0.0062,-0.1302246 0,-0.05581 0.0062,-0.1054199 0.012402,-0.049609 0.018604,-0.099219 0.0062,-0.055811 0.0062,-0.10542 0,-0.055811 0,-0.1054199 0,-0.1302246 0,-0.2604492 0,-0.1364258 -0.012402,-0.2666504 -0.0062,-0.031006 -0.012402,-0.068213 -0.0062,-0.037207 -0.0062,-0.074414 -0.012402,-0.1178223 -0.018603,-0.2418457 -0.0062,-0.1240235 -0.024804,-0.2480469 0.012402,-0.018603 0.012402,-0.037207 0,-0.024805 0,-0.043408 0,-0.031006 0,-0.055811 0,-0.031006 -0.0062,-0.062012 0.012402,-0.012402 0.024804,-0.024805 0.012402,-0.018604 0.024804,-0.031006 0.037206,0 0.074412,0.0062 0.043407,0 0.074412,0.024805 0.031005,-0.012402 0.068211,-0.024805 0.043407,-0.018604 0.074412,-0.018604 0.049608,0 0.074412,0.024805 0.031005,-0.012402 0.031005,-0.024805 0.0062,-0.018604 0.049608,-0.018604 0.080613,-0.0062 0.1116186,-0.0062 0.037206,0 0.068211,-0.0062 0.018604,0.012402 0.031005,0.031006 0.012402,0.018604 0.024805,0.037207 0.1364227,0.049609 0.2170361,0.142627 0.086814,0.086816 0.192232,0.1488281 0.024804,0.018604 0.049608,0.031006 0.024804,0.012402 0.049608,0.024805 0.05581,0.037207 0.1116185,0.080615 0.05581,0.043408 0.1178197,0.074414 0.062011,0.031006 0.068211,0.037207 0.012402,0 0.018604,0.012402 0.1364227,0.049609 0.2418402,0.1364258 0.1116186,0.080615 0.2356392,0.1488281 0.043407,0.024805 0.1054175,0.049609 0.068211,0.024805 0.1302216,0.05581 0.068211,0.024805 0.1240207,0.055811 0.062011,0.031006 0.093015,0.068213 0.068211,0.068213 0.1178197,0.099219 0.05581,0.024805 0.1054175,0.062012 l 0.0062,0.1674317 q 0,0.043408 -0.012402,0.080615 -0.0062,0.037207 -0.0062,0.080615 0,0.031006 0.012402,0.068213 z M 7.2353997,6.6333889 Q 7.1671884,6.5961818 7.098977,6.565176 7.0307656,6.527969 6.9811574,6.4659572 6.9377502,6.4535549 6.8261317,6.4101467 6.7145131,6.3605373 6.5966935,6.3109279 6.4850749,6.2551174 6.3858585,6.2179104 6.2928426,6.1745024 6.2804409,6.1745024 q -0.018603,0.0062 -0.018603,0.080615 0,0.074414 0,0.1612305 0,0.086816 0,0.1674316 0,0.080615 0,0.099219 0,0.1178222 -0.0062,0.2294433 -0.0062,0.1116211 -0.018604,0.2294434 -0.012402,0.018604 -0.018603,0.037207 -0.0062,0.012402 -0.012402,0.031006 -0.012402,0.086816 -0.012402,0.2294433 0,0.142627 0,0.2294434 0,0.043408 0,0.080615 0,0.037207 0.0062,0.086816 0.031005,0 0.043407,-0.012402 0.012402,-0.018604 0.043407,-0.031006 0.080613,-0.086816 0.1612269,-0.1674316 0.080613,-0.080615 0.1674278,-0.1674317 0.037206,-0.037207 0.074412,-0.080615 0.037206,-0.043408 0.080613,-0.074414 0.031005,-0.037207 0.05581,-0.068213 0.024804,-0.037207 0.055809,-0.068213 0.086814,-0.093018 0.1798299,-0.1798339 0.093016,-0.093018 0.1550258,-0.2046387 0.043407,-0.031006 0.080613,-0.099219 -0.043407,-0.0062 -0.06201,-0.049609 z m 2.4928147,1.4572753 q 0.012402,0.031006 0.093016,0.1364258 0.080613,0.099219 0.1798296,0.2232422 0.105418,0.1178223 0.204635,0.2294434 0.09922,0.1116211 0.136422,0.1612304 0.11782,0.173633 0.24184,0.341064 0.124021,0.167432 0.23564,0.347266 0.03101,0.03101 0.04961,0.08061 0.0186,0.04341 0.0186,0.09302 0,0.05581 -0.03101,0.06201 -0.0248,0 -0.05581,0.0124 -0.06201,0.04341 -0.111618,0.04961 -0.04961,0.0062 -0.08061,0.0062 -0.06821,0 -0.148824,-0.0062 -0.08061,0 -0.136423,0.0124 -0.0186,0.0062 -0.04341,0.0186 -0.02481,0.0186 -0.03721,0.0186 -0.04961,0 -0.07441,-0.0186 -0.0186,-0.0124 -0.05581,-0.02481 -0.04961,-0.05581 -0.09302,-0.117822 Q 9.982449,9.653344 9.939041,9.591331 9.901835,9.547921 9.858428,9.516921 9.815021,9.479711 9.777815,9.430101 9.6786062,9.28749 9.5731886,9.157266 9.4739722,9.027041 9.3685547,8.8968166 9.3189464,8.8286037 9.2569361,8.766592 9.2011268,8.7045803 9.1515186,8.6425685 9.1019103,8.5743556 9.0585031,8.4999416 9.0150959,8.4255275 8.9654876,8.3573146 8.9282815,8.2953029 8.8600701,8.2084865 8.7918587,8.1154689 8.7174463,8.0224514 8.643034,7.9294338 8.5624205,7.8488185 8.4880082,7.7620021 8.4321989,7.7185939 q 0,-0.043408 -0.024804,-0.062012 -0.024805,-0.018604 -0.05581,-0.043408 -0.012402,-0.031006 -0.031005,-0.055811 -0.018603,-0.031006 -0.018603,-0.068213 0,-0.024805 0.0062,-0.043408 0.0062,-0.018604 0.012402,-0.037207 0.012402,-0.024805 0.012402,-0.043408 0.0062,-0.024805 0.018604,-0.049609 0.031005,-0.080615 0.086814,-0.142627 0.06201,-0.062012 0.093016,-0.1426269 0.0062,-0.024805 0.0062,-0.043408 0,-0.024805 0.012402,-0.049609 0.018604,-0.037207 0.05581,-0.074414 0.037206,-0.037207 0.068211,-0.080615 0.031005,-0.05581 0.062011,-0.1116211 0.031005,-0.05581 0.062011,-0.1116211 Q 8.8848769,6.4163479 8.990294,6.2861233 9.0957116,6.1496975 9.188727,6.0194729 9.275542,5.8954494 9.3499539,5.7776272 9.4243659,5.6536037 9.5111806,5.5295803 q 0.043407,-0.062012 0.099217,-0.1364258 0.055809,-0.080615 0.1116186,-0.1550293 0.062011,-0.074414 0.1240206,-0.1364258 0.062011,-0.068213 0.1240205,-0.099219 0.1054167,-0.012402 0.1364227,0.037207 0.03101,0.043408 0.08682,0.043408 0.08682,0.018603 0.11782,0.055811 0.03101,0.037207 0.06201,0.068213 0.08062,0 0.136422,0.031006 0.05581,0.031006 0.111619,0.093018 -0.0248,0.068213 -0.06821,0.1240234 -0.03721,0.055811 -0.06821,0.1178223 -0.04961,0.018604 -0.07441,0.062012 -0.0186,0.043408 -0.06201,0.074414 -0.06821,0.1054199 -0.136423,0.2108398 -0.06821,0.099219 -0.136423,0.1922363 -0.03101,0.037207 -0.07441,0.062012 -0.037206,0.018603 -0.06201,0.062012 -0.012402,0.018604 -0.018603,0.043408 -0.0062,0.018604 -0.018603,0.037207 -0.074412,0.1178223 -0.1674279,0.2294434 -0.093016,0.1116211 -0.1612269,0.2356445 -0.031005,0.043408 -0.049608,0.093018 -0.018603,0.043408 -0.043407,0.086816 -0.024804,0.037207 -0.074412,0.1054199 -0.043407,0.068213 -0.093016,0.142627 -0.043407,0.068213 -0.080613,0.1364257 -0.031005,0.062012 -0.031005,0.10542 0.0062,0.031006 0.080613,0.1240234 0.074412,0.093018 0.1612268,0.1984375 0.093016,0.1054199 0.1736289,0.1984375 0.086814,0.093018 0.1116185,0.1178222 z m 3.8012316,0.6325196 q 0.04341,0.055811 0.04961,0.093018 0.0124,0.031006 0.02481,0.068213 0.0124,0.031006 0.0186,0.062012 0.0124,0.031006 0.0124,0.037207 0,0.043408 -0.0186,0.074414 -0.0124,0.02481 -0.04341,0.06821 -0.248042,0.09302 -0.489882,0.186035 -0.241841,0.08682 -0.496083,0.173633 -0.06821,0.0186 -0.12402,0.04341 -0.05581,0.0186 -0.12402,0.03101 -0.0124,0.0124 -0.04341,0.02481 -0.0248,0.0062 -0.06201,0.0186 -0.03721,0.0124 -0.07441,0.02481 -0.03101,0.0062 -0.04341,0.0062 -0.04961,0.0124 -0.111619,0.0124 -0.05581,-0.0062 -0.111618,0 -0.03101,0.0062 -0.04341,0.03101 -0.0124,0.02481 -0.03101,0.05581 -0.0124,0.02481 -0.04341,0.04961 -0.03101,0.0186 -0.08682,0.0186 -0.05581,0 -0.111619,-0.0062 -0.05581,-0.0062 -0.117819,-0.03101 -0.0124,-0.0186 -0.0124,-0.04341 0.0062,-0.03101 -0.0062,-0.04961 -0.05581,-0.0062 -0.08682,0.0124 -0.03101,0.0124 -0.06201,0.0186 -0.0186,-0.02481 -0.03101,-0.05581 -0.0062,-0.03721 -0.03101,-0.06201 -0.0062,-0.03101 -0.0062,-0.06201 0,-0.03101 0,-0.06201 0,-0.04341 0,-0.09922 0.0062,-0.06201 0.0248,-0.09302 0.0186,-0.3534672 0.0186,-0.706934 0,-0.359668 0,-0.7131348 0,-0.031006 0,-0.086816 0,-0.062012 -0.0062,-0.1240234 0,-0.062012 -0.0062,-0.1116211 0,-0.055811 -0.0062,-0.080615 0.0062,-0.043408 0.0062,-0.080615 0,-0.043408 0,-0.086816 0,-0.037207 0,-0.068213 0,-0.031006 -0.0124,-0.062012 0.0062,-0.024805 0.0062,-0.068213 0,-0.031006 -0.0062,-0.062012 -0.0062,-0.031006 -0.0062,-0.062012 0,-0.049609 0,-0.093018 0.0062,-0.049609 0.0062,-0.099219 0,-0.1612305 -0.0186,-0.3162598 -0.0124,-0.1612304 -0.0124,-0.3224609 0,-0.2108399 -0.0062,-0.4216797 0,-0.2108398 -0.0062,-0.4216797 0.0248,-0.062012 0.0248,-0.1054199 0.08682,-0.043408 0.136422,-0.031006 0.04961,0.012402 0.09922,0.012402 0.03101,0 0.05581,-0.0062 0.0248,-0.0062 0.04961,-0.018604 0.03101,0.0062 0.04961,0.018604 0.0248,0.0062 0.05581,0.0062 0.09302,-0.018603 0.09922,-0.0062 0.0124,0.012402 0.03101,0.024805 0.0248,-0.0062 0.03721,-0.018604 0.0186,-0.018603 0.04341,-0.018603 0.03721,0 0.05581,0.049609 0.0186,0.043408 0.04341,0.074414 0,0.068213 0.0248,0.1240234 0.0124,0.2542481 0.0062,0.502295 0,0.2480468 0.0186,0.4960937 0.0062,0.1116211 0.0124,0.2356445 0.0124,0.1178223 0.0124,0.2294434 0,0.1860351 0,0.3782715 0.0062,0.1860351 0.0062,0.3782714 0,0.031006 0,0.055811 0.0062,0.024805 0.0062,0.05581 0,0.074414 -0.0062,0.142627 -0.0062,0.068213 -0.0062,0.1364258 V 8.481339 q 0,0.062012 -0.0062,0.1302246 0,0.062012 0.0062,0.1240234 l 0.0248,0.074414 q 0.06821,-0.024805 0.136423,-0.049609 0.07441,-0.031006 0.155025,-0.043408 0.04961,-0.012402 0.09302,-0.024805 0.04341,-0.012402 0.09302,-0.024805 0.08682,-0.049609 0.136422,-0.068213 0.04961,-0.018604 0.09922,-0.037207 0.105417,-0.037207 0.204634,-0.074414 0.09922,-0.043408 0.204633,-0.080615 0.04961,0.012402 0.08062,-0.012402 0.06201,0.012402 0.111619,0.012402 0.06821,0.068213 0.08061,0.1054199 0.0186,0.037207 0.04961,0.068213 -0.0124,0.031006 0,0.037207 0.0186,0.0062 0.02481,0.031006 0.0248,0.012402 0.0062,0.037207 -0.0186,0.018604 -0.0248,0.037207 z"
     id="text2"
     style="font-weight:bold;font-size:6.35px;font-family:'Caesar Dressing';-inkscape-font-specification:'Caesar Dressing Bold';display:none;fill:#fffff0;stroke-width:0.26458"
     inkscape:label="LOGO_TEXT"
     aria-label="ORCL" />
  <path
     d="m 4.2491858,7.2811966 q -0.011024,0.022049 -0.022049,0.044097 -0.011024,0.016536 -0.016536,0.038585 0.022049,0.022049 0.038585,0.049609 0.022048,0.022049 0.022048,0.049609 0,0.022049 -0.011024,0.044097 -0.00551,0.016536 0,0.033073 -0.022049,0.038585 -0.049609,0.071658 -0.022049,0.033073 -0.033073,0.071658 -0.022049,0.022049 -0.038585,0.044097 -0.011024,0.022049 -0.022049,0.044097 -0.027561,0.011024 -0.038585,0.038585 -0.00551,0.022049 -0.027561,0.038585 -0.00551,0.022049 -0.055121,0.1047308 -0.049609,0.082682 -0.110243,0.1763888 -0.060634,0.093707 -0.1157551,0.1819009 -0.055121,0.088194 -0.07717,0.1157551 -0.011024,0.027561 -0.027561,0.044097 -0.011024,0.016536 -0.027561,0.038585 -0.011024,0.016536 -0.016536,0.038585 -0.00551,0.016536 -0.016536,0.027561 -0.011024,0.022049 -0.027561,0.038585 -0.011024,0.016536 -0.022049,0.044097 -0.055121,0.071658 -0.1102429,0.1708766 -0.055122,0.099219 -0.1047309,0.1763887 -0.027561,0.044097 -0.055121,0.088194 -0.022048,0.044097 -0.049609,0.088194 -0.027561,0.044097 -0.055121,0.082682 -0.027561,0.038585 -0.055121,0.082682 -0.044097,0.033073 -0.07717,0.082682 -0.033073,0.044097 -0.07717,0.07717 -0.071658,0 -0.088194,-0.066146 -0.071658,-0.016536 -0.071658,0 0,0.016536 0,0.027561 -0.022049,0.011024 -0.033073,0.033073 -0.00551,0.022049 -0.027561,0.033073 -0.044097,-0.011024 -0.07717,-0.038585 Q 2.6451505,9.4750318 2.590029,9.4805439 2.5679804,9.447471 2.5404197,9.4254224 2.5128589,9.3978617 2.4908103,9.3703009 2.4797861,9.337228 2.4577375,9.3151795 2.441201,9.2931309 2.4246646,9.2710823 2.4081281,9.2435215 2.3915917,9.2214729 2.3750552,9.1994243 2.3585188,9.1773757 2.3199337,9.1277664 2.2813487,9.0836692 2.2482758,9.0340599 2.2207151,8.9844505 2.1766179,8.9183048 2.1325207,8.852159 2.0939356,8.780501 2.0498385,8.7143553 2.0277899,8.6812824 2.0057413,8.6482095 1.9836927,8.6151366 1.9671562,8.5820637 1.9561319,8.5545029 1.9340833,8.5159179 1.9175469,8.4773329 1.8899862,8.4663086 1.8789619,8.4222114 1.8514011,8.4001628 1.8238404,8.3781142 1.7962796,8.3450413 1.7576946,8.3009441 1.7246217,8.2513348 1.6915488,8.1962133 1.6584759,8.1410918 1.5482329,7.9867516 1.4490143,7.8379236 1.3553077,7.6890956 1.2616012,7.5292433 1.289162,7.4410489 1.289162,7.3969517 q 0,-0.044097 0.027561,-0.071658 0,-0.022049 0.011024,-0.066146 0.071658,-0.1212672 0.1378037,-0.2204859 0.060634,-0.093706 0.082682,-0.1543402 0.027561,-0.060634 0.055122,-0.1267794 0.027561,-0.016536 0.044097,-0.038585 0.016537,-0.027561 0.044097,-0.049609 0.011024,-0.060634 0.049609,-0.099219 0.038585,-0.044097 0.049609,-0.1047308 0.049609,-0.038585 0.055121,-0.088194 0.071658,-0.049609 0.088194,-0.1322915 0.044097,-0.044097 0.071658,-0.099219 0.033073,-0.055121 0.060634,-0.1157551 0.066146,-0.055122 0.1047308,-0.1433159 0.033073,-0.022049 0.049609,-0.060634 0.016536,-0.038585 0.044097,-0.066146 0.044097,-0.071658 0.066146,-0.1157551 0.027561,-0.049609 0.055122,-0.099219 0.038585,0 0.049609,-0.027561 0.011024,-0.027561 0.044097,-0.022049 0,-0.049609 0.027561,-0.088194 0.011024,-0.00551 0.033073,-0.011024 0.022049,-0.011024 0.022049,-0.022049 -0.011024,-0.066146 0.00551,-0.07717 0.016536,-0.011024 0.027561,-0.022049 0.060634,0.011024 0.082682,0.016536 0.022049,0.00551 0.071658,0.038585 0.055121,0 0.07717,0.022049 0.022049,0.022049 0.049609,0.033073 0.022049,0.022049 0.033073,0.044097 0.016536,0.022049 0.044097,0.033073 0.044097,0.060634 0.093707,0.1322915 0.049609,0.071658 0.093707,0.1322916 0.060634,0.082682 0.1212673,0.1598523 0.066146,0.071658 0.1212672,0.1598523 0.016536,0.027561 0.060634,0.099219 0.044097,0.066146 0.099219,0.1433159 0.055121,0.07717 0.099219,0.1433158 0.044097,0.060634 0.060634,0.071658 0.016536,0.027561 0.071658,0.1047308 0.055121,0.07717 0.1157551,0.1653644 0.066146,0.082682 0.1267794,0.1598524 0.060634,0.07717 0.082682,0.099219 0.060634,0.082682 0.088194,0.1378037 0.033073,0.049609 0.060634,0.110243 z m -1.2622821,1.036284 q 0.060634,-0.082682 0.093707,-0.1488281 0.033073,-0.066146 0.066146,-0.1322915 0.055122,-0.066146 0.066146,-0.093706 0.011024,-0.027561 0.027561,-0.055121 0.044097,-0.066146 0.088194,-0.1322916 0.049609,-0.066146 0.07717,-0.1433159 0.033073,-0.022049 0.049609,-0.055122 0.016536,-0.033073 0.049609,-0.060634 Q 3.4719728,7.3804153 3.4278756,7.3197817 3.3837784,7.2536359 3.3396812,7.1930022 3.3231448,7.1654415 3.3066083,7.1378808 3.2900719,7.11032 3.2735355,7.0827593 3.2514869,7.0662228 3.2349504,7.0496864 3.2239261,7.0331499 3.2073897,7.0166135 3.1963654,6.9890527 3.1743168,6.9449556 3.1522682,6.9173948 3.1302196,6.8953462 3.108171,6.8732976 3.0916345,6.8402247 3.069586,6.8181761 3.0365131,6.7795911 3.0034402,6.7410061 2.9648551,6.6969089 2.9317822,6.6472995 2.9042215,6.6087145 2.8766608,6.5646173 2.8601243,6.5370566 2.8491,6.5094958 2.8380757,6.4929594 q -0.00551,-0.022049 -0.016536,-0.044097 -0.027561,-0.038585 -0.055121,-0.066146 -0.027561,-0.033073 -0.055122,-0.071658 -0.016536,0.011024 -0.033073,0.016536 -0.011024,0 -0.022049,0.011024 -0.038585,0.071658 -0.088194,0.1322916 -0.044097,0.060634 -0.088194,0.1322915 -0.038585,0.066146 -0.07717,0.1378038 -0.038585,0.066146 -0.07717,0.1322915 -0.027561,0.038585 -0.055122,0.07717 -0.022049,0.033073 -0.049609,0.07717 -0.027561,0.038585 -0.049609,0.082682 -0.016536,0.038585 -0.044097,0.07717 -0.044097,0.055122 -0.071658,0.099219 -0.027561,0.044097 -0.055122,0.1047308 0.016536,0.033073 0.049609,0.093706 0.038585,0.055122 0.07717,0.1157551 0.038585,0.055122 0.066146,0.1047309 0.033073,0.049609 0.038585,0.066146 0.044097,0.038585 0.071658,0.088194 0.027561,0.044097 0.071658,0.088194 0.022049,0.044097 0.049609,0.07717 0.027561,0.033073 0.055122,0.071658 0.027561,0.038585 0.071658,0.1157551 0.044097,0.071658 0.088194,0.148828 0.044097,0.07717 0.088194,0.1433159 0.044097,0.066146 0.071658,0.082682 0.055121,-0.060634 0.088194,-0.1322915 0.038585,-0.07717 0.099219,-0.1378037 z m 5.4515149,1.1355026 q -0.027561,0.027561 -0.060634,0.033073 -0.033073,0.00551 -0.066146,0.00551 -0.082682,0.038585 -0.1763888,0.038585 -0.060634,-0.033073 -0.066146,-0.022049 -0.00551,0.011024 -0.022049,0.022049 -0.082682,0.038585 -0.148828,0.038585 -0.066146,0.00551 -0.110243,0.033073 -0.044097,-0.033073 -0.049609,-0.099219 0,-0.060634 -0.011024,-0.1047308 -0.027561,-0.038585 -0.038585,-0.093706 -0.011024,-0.060634 -0.016536,-0.1212673 -0.00551,-0.060634 -0.016536,-0.1157551 -0.00551,-0.060634 -0.027561,-0.1047309 -0.00551,-0.027561 -0.00551,-0.049609 0.00551,-0.022049 -0.00551,-0.049609 0.00551,-0.093707 -0.00551,-0.148828 -0.011024,-0.055121 -0.022049,-0.1157552 -0.00551,-0.033073 -0.00551,-0.071658 0,-0.044097 -0.033073,-0.066146 0.016536,-0.07717 0.00551,-0.1157551 -0.011024,-0.038585 -0.016536,-0.071658 -0.00551,-0.044097 -0.00551,-0.093707 0,-0.055121 -0.011024,-0.099219 Q 7.4903291,7.815875 7.451744,7.5512919 7.413159,7.2867088 7.3800861,7.0221256 q -0.033073,0.027561 -0.049609,0.082682 -0.011024,0.055121 -0.022049,0.099219 -0.033073,0.099219 -0.060634,0.2039495 -0.027561,0.1047309 -0.055122,0.2039495 -0.011024,0.044097 -0.022049,0.1047309 -0.00551,0.055121 -0.022049,0.099219 -0.055121,0.1598523 -0.099219,0.2756075 -0.038585,0.1157551 -0.07717,0.2370224 -0.011024,0.066146 -0.022049,0.1267794 -0.011024,0.060634 -0.022049,0.1212672 -0.00551,0.033073 -0.016536,0.093707 -0.011024,0.060634 -0.022049,0.088194 -0.011024,0.027561 -0.022049,0.038585 -0.00551,0.011024 0,0.038585 -0.055121,0.082682 -0.07717,0.1819009 -0.016536,0.099219 -0.066146,0.1929252 0,0.066146 -0.049609,0.1157552 -0.027561,0.00551 -0.055122,0.011024 -0.022049,0.00551 -0.049609,0.022049 -0.027561,-0.011024 -0.066146,-0.011024 -0.033073,-0.00551 -0.066146,-0.00551 Q 6.4099479,9.337228 6.3878993,9.3262038 6.3658507,9.3096673 6.33829,9.3041552 6.3107293,9.2710823 6.2776564,9.2490337 6.2445835,9.2214729 6.2115106,9.1939122 6.1784377,9.11123 6.1508769,9.0836692 6.1343405,9.0230356 6.1067798,8.9734262 6.079219,8.9183048 6.0681947,8.852159 6.0516583,8.7915253 6.0240975,8.741916 6.0020489,8.6867945 5.9744882,8.6261609 q -0.011024,-0.038585 -0.027561,-0.071658 -0.011024,-0.038585 -0.027561,-0.07717 -0.00551,-0.044097 -0.033073,-0.110243 -0.022049,-0.066146 -0.033073,-0.1157551 0,-0.00551 -0.022049,-0.055122 Q 5.8146359,8.1410918 5.7925873,8.0804582 5.7760508,8.0198245 5.7540022,7.9702152 5.7374658,7.9206059 5.7319537,7.9150937 5.7209294,7.887533 5.7099051,7.8654844 5.7043929,7.8379236 5.6933686,7.8048507 5.67132,7.7331928 5.6382471,7.6615349 5.6051742,7.5843648 5.5721013,7.518219 5.5445406,7.4630975 5.5335163,7.4134882 5.522492,7.3583667 5.5059556,7.3087574 5.4949313,7.2811966 5.483907,7.259148 q -0.00551,-0.022049 -0.016536,-0.049609 -0.011024,-0.033073 -0.022049,-0.066146 -0.011024,-0.038585 -0.022049,-0.07717 -0.027561,0.011024 -0.027561,0.049609 0.00551,0.033073 0,0.060634 -0.011024,0.060634 -0.011024,0.1212673 0,0.055121 -0.00551,0.1157551 -0.011024,0.066146 -0.022049,0.1267794 -0.011024,0.060634 -0.016536,0.1212673 0,0.148828 -0.016536,0.297656 -0.011024,0.1322916 -0.027561,0.2700953 -0.016536,0.1322915 -0.022049,0.2756074 0,0.1047308 -0.022049,0.2094617 -0.022049,0.099219 -0.011024,0.2094616 -0.011024,0.022049 -0.011024,0.033073 0,0.011024 0,0.033073 0,0.027561 -0.00551,0.060634 0,0.033073 0,0.060634 0,0.049609 0.011024,0.066146 -0.016536,0.049609 -0.016536,0.110243 0,0.055122 0,0.110243 -0.011024,0.022049 -0.016536,0.044097 0,0.022049 -0.016536,0.044097 0.00551,0.093706 -0.055121,0.093706 -0.016536,0 -0.038585,-0.011024 -0.016536,-0.00551 -0.027561,-0.022049 -0.060634,0.00551 -0.071658,-0.027561 -0.00551,-0.033073 -0.033073,-0.027561 -0.066146,0.027561 -0.07717,0.016537 -0.00551,-0.011024 -0.033073,-0.00551 -0.044097,-0.044097 -0.060634,-0.038585 -0.011024,0.00551 -0.022049,0.00551 -0.049609,-0.016536 -0.055121,-0.00551 -0.00551,0.00551 -0.022049,0.00551 -0.027561,-0.027561 -0.07717,-0.027561 -0.044097,0 -0.07717,-0.00551 -0.00551,-0.022049 -0.011024,-0.038585 0,-0.022049 0,-0.049609 0,-0.033073 0,-0.060634 0.00551,-0.033073 0.00551,-0.066146 0,-0.027561 -0.00551,-0.055122 0,-0.033073 0,-0.071658 0,-0.038585 0.00551,-0.071658 0.00551,-0.038585 0.00551,-0.082682 0,-0.016536 -0.00551,-0.027561 -0.00551,-0.016536 -0.00551,-0.038585 0.033073,-0.071658 0.027561,-0.110243 0,-0.044097 0.00551,-0.082682 0.011024,-0.093707 0.016536,-0.1819009 0.011024,-0.093707 0.022049,-0.1874131 0,-0.1543402 0.00551,-0.2535588 0.011024,-0.1047309 0.027561,-0.2094617 0.011024,-0.049609 0.016536,-0.093706 0.011024,-0.044097 0.022049,-0.093706 0.011024,-0.082682 0.011024,-0.1708766 0.00551,-0.093707 0.016536,-0.1819009 0.011024,-0.1378038 0.027561,-0.2700953 0.016536,-0.1378037 0.027561,-0.2700953 0.011024,-0.1047308 0.022049,-0.2039495 0.016536,-0.1047308 0.016536,-0.1984374 0,-0.049609 0.011024,-0.1267794 0.016536,-0.07717 0.022049,-0.1322915 0.011024,-0.1322916 0.016536,-0.259071 0.011024,-0.1267794 0.011024,-0.2535589 v -0.060634 q 0,-0.011024 0.011024,-0.022049 0.011024,-0.011024 0.011024,-0.038585 0,-0.049609 0.022049,-0.066146 0.027561,-0.022049 0.044097,-0.066146 0.027561,0 0.060634,0.00551 0.038585,0.00551 0.055122,0.033073 0.038585,-0.011024 0.07717,-0.011024 0.038585,0 0.066146,-0.027561 0.033073,0 0.049609,0.016536 0.016536,0.016536 0.044097,0.027561 0.022049,-0.011024 0.044097,-0.016536 0.022048,-0.011024 0.044097,-0.022049 0.016537,0.011024 0.022049,0.027561 0.011024,0.011024 0.027561,0.016536 0.082682,-0.022048 0.110243,-0.00551 0.011024,0.022049 0.011024,0.044097 0.00551,0.022049 0.011024,0.044097 0.055122,0.055122 0.071658,0.1267794 0.016536,0.066146 0.060634,0.1212673 0.011024,0.033073 0.022049,0.066146 0.016536,0.033073 0.027561,0.07717 l 0.016536,0.066146 q 0.022049,0.055122 0.055122,0.1322916 0.027561,0.1047308 0.049609,0.2149738 0.022049,0.1102429 0.071658,0.2039495 0.00551,0.033073 0.016536,0.082682 0.016536,0.044097 0.027561,0.07717 0.038585,0.093706 0.07717,0.187413 0.044097,0.088194 0.07717,0.1929252 0.033073,0.1047309 0.055121,0.2149738 0.027561,0.110243 0.066146,0.2149738 0.033073,0.099219 0.049609,0.1433159 0.016536,0.044097 0.044097,0.088194 0,0.016536 0.00551,0.055122 0.011024,0.038585 0.027561,0.082682 0.016536,0.038585 0.033073,0.07717 0.016536,0.033073 0.033073,0.038585 0.016536,-0.011024 0.016536,-0.033073 0.00551,-0.022049 0.022049,-0.038585 0.00551,-0.060634 0.016536,-0.148828 0.016536,-0.088194 0.044097,-0.1433159 0,-0.027561 0.011024,-0.099219 0.016536,-0.07717 0.038585,-0.1598523 0.022049,-0.088194 0.038585,-0.1598523 0.022049,-0.071658 0.038585,-0.088194 0.011024,-0.071658 0.016536,-0.088194 0.011024,-0.016536 0.022049,-0.027561 0.00551,-0.044097 0.022049,-0.082682 0.016536,-0.038585 0.022049,-0.082682 0.011024,-0.093706 0.027561,-0.1543401 0.016536,-0.060634 0.044097,-0.148828 0.022049,-0.07717 0.038585,-0.1543402 0.022049,-0.082682 0.049609,-0.1598523 0.066146,-0.2094616 0.1157551,-0.369314 0.055121,-0.1653644 0.1322916,-0.3197046 0.016536,-0.049609 0.027561,-0.060634 0.011024,-0.011024 0.022049,-0.022049 0.044097,-0.016536 0.088194,-0.016536 0.049609,0 0.099219,0.00551 0.055121,-0.022049 0.082682,-0.049609 0.022049,0.027561 0.066146,0.027561 0.055121,0 0.07717,-0.033073 0.022049,0.011024 0.033073,0.00551 0.016536,-0.00551 0.044097,0.00551 0.011024,-0.011024 0.027561,-0.022049 0.016536,-0.016536 0.033073,-0.016536 0.044097,0.055121 0.066146,0.088194 0.027561,0.027561 0.038585,0.066146 0.016536,0.049609 0.016536,0.110243 0.00551,0.055122 0.033073,0.1047308 -0.00551,0.071658 0.00551,0.220486 0.016536,0.1433158 0.033073,0.3086803 0.022049,0.1598523 0.044097,0.297656 0.022049,0.1378037 0.038585,0.1708766 -0.00551,0.071658 0.00551,0.1212673 0.011024,0.049609 0.011024,0.099219 0,0.016536 0.00551,0.071658 0.00551,0.049609 0.011024,0.110243 0.00551,0.055121 0.011024,0.1102429 0.011024,0.049609 0.016536,0.071658 0,0.099219 0.033073,0.1543401 0.027561,0.1378038 0.044097,0.2756075 0.022049,0.1378037 0.038585,0.2811195 0.011024,0.071658 0.011024,0.1378038 0.00551,0.066146 0.016536,0.1378037 0.00551,0.027561 0.011024,0.055122 0.011024,0.027561 0.016537,0.055121 0.011024,0.055121 0.016536,0.1047309 0.00551,0.049609 0.016536,0.099219 0.00551,0.027561 0.016536,0.060634 0.011024,0.027561 0,0.060634 0.011024,0.038585 0.00551,0.082682 0,0.044097 0.022049,0.07717 0,0.1157551 0.016537,0.2039495 0.00551,0.066146 0.033073,0.1322916 0.011024,0.066146 0.016536,0.1378037 0.011024,0.071658 0.022049,0.1433159 z M 10.847227,8.6978188 q 0.0441,0.071658 0.06615,0.1378037 0.02205,0.066146 0.02205,0.093707 0,0.038585 -0.01654,0.066146 -0.01102,0.022049 -0.03307,0.049609 -0.220486,0.093706 -0.440971,0.1763887 -0.214974,0.07717 -0.440972,0.1543402 -0.055122,0.016536 -0.1102433,0.038585 -0.049609,0.016537 -0.110243,0.027561 -0.011024,0.011024 -0.038585,0.022049 -0.027561,0.011024 -0.066146,0.022049 -0.033073,0.011024 -0.066146,0.016536 -0.033073,0.011024 -0.044097,0.011024 -0.011024,-0.027561 -0.022049,-0.033073 -0.011024,-0.00551 -0.022049,-0.011024 -0.027561,0 -0.038585,0.016537 -0.00551,0.022049 -0.033073,0.033073 -0.027561,0 -0.049609,0 -0.022049,0.00551 -0.038585,-0.00551 -0.044097,0.011024 -0.082682,0.038585 -0.033073,0.027561 -0.07717,0.038585 -0.082682,-0.022049 -0.1047308,-0.022049 -0.016537,0.00551 -0.038585,0.011024 -0.038585,-0.033073 -0.038585,-0.093706 0.00551,-0.060634 -0.027561,-0.099219 0,-0.071658 -0.011024,-0.07717 -0.011024,-0.011024 -0.011024,-0.022049 0,-0.038585 0.00551,-0.071658 0.00551,-0.033073 -0.00551,-0.071658 0.022049,-0.093706 0.016536,-0.1819009 -0.00551,-0.088194 0.00551,-0.1763887 0,-0.027561 0,-0.049609 0.00551,-0.027561 0.00551,-0.055121 0,-0.082682 0.011024,-0.099219 0.011024,-0.022049 0.011024,-0.049609 0,-0.038585 -0.00551,-0.071658 0,-0.038585 0,-0.082682 0,-0.07717 0,-0.148828 0.00551,-0.07717 0.00551,-0.1598523 0,-0.2094617 -0.027561,-0.4189233 -0.027561,-0.2094617 -0.027561,-0.4189233 0,-0.2535589 -0.027561,-0.5016055 -0.027561,-0.2480467 -0.027561,-0.5016056 0,-0.044097 0,-0.1212672 0,-0.082682 0,-0.1653645 0,-0.088194 0,-0.1653645 0.00551,-0.07717 0.011024,-0.1102429 0,-0.00551 0.033073,-0.016536 0.033073,-0.011024 0.044097,-0.011024 0.027561,0 0.044097,0.016536 0.016536,0.011024 0.038585,0.022049 0.099219,-0.011024 0.1157551,-0.016536 0.022049,-0.011024 0.033073,-0.011024 0.033073,0 0.049609,0.016536 0.022049,0.016536 0.033073,0.016536 0.093707,-0.022049 0.099219,-0.00551 0.011024,0.016536 0.038585,0.016536 0.071658,-0.022049 0.088194,-0.016536 0.016536,0.00551 0.033073,0.00551 0.027561,0 0.060634,-0.016536 0.033073,-0.022049 0.060634,-0.033073 0.093706,-0.027561 0.1543402,-0.055121 0.082682,-0.049609 0.1212672,-0.066146 0.044097,-0.016536 0.088194,-0.038585 0.09371,-0.038585 0.176389,-0.07717 0.08819,-0.044097 0.181901,-0.088194 0.01654,0 0.03307,0 0.02205,-0.00551 0.03307,-0.016536 0.01654,0.00551 0.03307,0.00551 0.02205,0 0.03858,0 0.05512,0.022049 0.07166,0.027561 0.02205,0.033073 0.03858,0.066146 0.02205,0.027561 0.04961,0.055122 0.02756,0.049609 0.0441,0.049609 0,0.016536 -0.01654,0.038585 -0.01654,0.016536 -0.01654,0.033073 0.0441,0.07717 0.07166,0.1433159 0.02756,0.066146 0.02756,0.093707 0,0.038585 -0.01103,0.066146 -0.01102,0.022049 -0.02756,0.049609 -0.209462,0.099219 -0.424436,0.1984374 -0.209461,0.093706 -0.4299473,0.187413 -0.055122,0.022049 -0.1047308,0.049609 -0.049609,0.022049 -0.110243,0.033073 -0.011024,0.011024 -0.049609,0.022049 -0.038585,0.00551 -0.060634,0.00551 0.011024,0.093706 0.011024,0.187413 0.00551,0.088194 0.011024,0.1819009 0.00551,0.07717 0.016536,0.1653645 0.016536,0.082682 0.027561,0.1653645 0.1819009,-0.07717 0.3582893,-0.1543402 0.181901,-0.07717 0.363802,-0.1543402 0.03307,0.00551 0.06615,0.011024 0.03858,0.00551 0.07166,0.016536 0.01102,0.011024 0.02205,0.027561 0.01103,0.016536 0.02756,0.027561 -0.0055,0.027561 0.03307,0.082682 0.0441,0.055122 0.0441,0.082682 0,0.044097 0.01103,0.055121 0.01102,0.00551 0.02205,0.044097 0.0055,0.055122 0,0.060634 0.02756,0.027561 0.0441,0.055121 0.01654,0.027561 0.01654,0.066146 -0.07717,0.093707 -0.15434,0.1267794 -0.07717,0.027561 -0.15434,0.060634 -0.02756,0.011024 -0.06063,0.033073 -0.02756,0.016536 -0.05512,0.027561 -0.0441,0.016536 -0.08819,0.033073 -0.03858,0.011024 -0.08268,0.033073 -0.07166,0.038585 -0.148828,0.088194 -0.071658,0.044097 -0.1488282,0.060634 -0.060634,0.016536 -0.082682,0.038585 -0.016536,0.016536 -0.060634,0.049609 v 0.148828 0.2756074 q 0,0.055122 0,0.1157551 0,0.055121 -0.00551,0.1157551 -0.011024,0.055122 -0.011024,0.093707 v 0.088194 q 0.027561,-0.011024 0.055122,-0.016537 0.027561,-0.011024 0.055121,-0.022049 0.022049,-0.00551 0.038585,-0.00551 0.022049,0 0.044097,-0.011024 0.027561,-0.00551 0.044097,-0.011024 0.016536,-0.00551 0.038585,-0.016537 0.082682,-0.044097 0.1267791,-0.055122 0.0441,-0.016536 0.08819,-0.033073 0.09371,-0.033073 0.181901,-0.066146 0.08819,-0.038585 0.176388,-0.071658 0.05512,0.011024 0.07717,-0.016536 0.02756,0.00551 0.0441,0.011024 0.02205,0.00551 0.04961,0.00551 0.06615,0.060634 0.08268,0.093707 0.01654,0.033073 0.0441,0.060634 0.02756,0.049609 0.03858,0.049609 0,0.011024 -0.01654,0.038585 -0.01654,0.022049 -0.02205,0.038585 z M 13.818276,5.329896 q 0.06063,0 0.08819,0.016536 0.02756,0.055121 0.03307,0.099219 0.01102,0.038585 0.01102,0.093707 0.0055,0.082682 0,0.1212672 0,0.033073 -0.0055,0.071658 -0.0055,0.088194 -0.0055,0.1708766 0,0.07717 0,0.1653644 0,0.1929252 0.0055,0.3913626 0.0055,0.1984373 0.0055,0.3913625 0,0.07717 -0.0055,0.1543402 0,0.071658 0,0.148828 0,0.016536 0,0.038585 0.0055,0.016537 0.0055,0.033073 0,0.049609 -0.0055,0.099219 0,0.044097 0,0.088194 0,0.022049 0,0.038585 0,0.016536 0.0055,0.044097 -0.01102,0.044097 -0.01102,0.060634 0,0.088194 0.0055,0.181901 0.0055,0.088194 0.0055,0.1763887 0,0.082682 0,0.1598523 0.0055,0.07717 0.0055,0.1598523 0,0.044097 -0.0055,0.093707 0,0.049609 0,0.099219 0,0.1157551 0.0055,0.2370224 0.0055,0.1157551 0.01103,0.2315103 0,0.07717 0,0.1543401 0,0.071658 0.01102,0.148828 0,0.088194 -0.01102,0.1322916 -0.0055,0.038585 -0.01654,0.07717 -0.0441,0.011024 -0.06063,0.011024 -0.01103,-0.00551 -0.02756,-0.00551 -0.07717,0.022049 -0.09922,0.044097 -0.02205,0.016537 -0.04961,0.038585 -0.02205,0 -0.05512,0 -0.02756,0.00551 -0.0441,0.022049 -0.02756,-0.011024 -0.0441,-0.00551 -0.01654,0.00551 -0.03307,0.00551 -0.07717,0.00551 -0.104731,0.016536 -0.02756,0.016536 -0.07717,0.016536 -0.0441,-0.071658 -0.06614,-0.1102429 -0.02205,-0.044097 -0.07166,-0.038585 -0.07166,-0.1102429 -0.104731,-0.2315102 -0.02756,-0.1212673 -0.09922,-0.220486 -0.0055,-0.044097 -0.01654,-0.055121 -0.01103,-0.011024 -0.02205,-0.044097 -0.02205,-0.044097 -0.03858,-0.093707 -0.01654,-0.049609 -0.0441,-0.093706 -0.0441,-0.093706 -0.08819,-0.1819009 -0.0441,-0.093706 -0.08268,-0.1929252 -0.01654,-0.044097 -0.02756,-0.088194 -0.01102,-0.049609 -0.02756,-0.093707 -0.01103,-0.022049 -0.02756,-0.044097 -0.01102,-0.022049 -0.02205,-0.038585 -0.03307,-0.060634 -0.06614,-0.1212673 -0.02756,-0.060634 -0.06615,-0.1212673 -0.01102,-0.027561 -0.03307,-0.049609 -0.01654,-0.027561 -0.03859,-0.055122 -0.01654,-0.038585 -0.03307,-0.07717 -0.01102,-0.038585 -0.02756,-0.07717 -0.01102,-0.033073 -0.03307,-0.066146 -0.02205,-0.038585 -0.03307,-0.071658 -0.01102,-0.027561 -0.01654,-0.055121 -0.0055,-0.027561 -0.03307,-0.049609 -0.03858,0.066146 -0.03858,0.088194 -0.0055,0.066146 -0.01102,0.110243 0,0.038585 0,0.071658 0,0.038585 0.0055,0.07717 0.01102,0.033073 0.01102,0.066146 0.01103,0.1322915 0.01654,0.2700952 0.0055,0.1322916 0.0055,0.2645832 -0.0055,0.1047308 -0.0055,0.1598523 0.0055,0.055122 0.01102,0.110243 0.0055,0.055121 0,0.1157551 0,0.055122 0.0055,0.110243 0,0.1267794 0,0.2480466 0.0055,0.1157552 0.0055,0.2425346 v 0.1322915 q 0,0.060634 -0.01654,0.110243 -0.08268,0 -0.110243,-0.00551 -0.02205,-0.00551 -0.04961,-0.016537 -0.03307,0.00551 -0.05512,0.027561 -0.01654,0.016536 -0.0441,0.033073 -0.06063,-0.00551 -0.06615,0 -0.0055,0.011024 -0.02205,0.022049 -0.01654,0.00551 -0.03307,0 -0.01103,-0.00551 -0.02756,-0.00551 -0.0441,-0.011024 -0.07166,-0.011024 -0.03307,0.011024 -0.06615,0.022049 -0.02756,0.011024 -0.06063,0.016536 -0.03307,-0.060634 -0.03859,-0.1433158 -0.0055,-0.082682 -0.0441,-0.1433159 0.01103,-0.022049 0.01103,-0.027561 0.0055,-0.00551 0.0055,-0.033073 0,-0.1267794 -0.0055,-0.2535589 -0.0055,-0.1267794 -0.0055,-0.2535588 0,-0.1047308 -0.01654,-0.2039495 -0.01102,-0.099219 -0.01102,-0.2039495 0,-0.033073 0.0055,-0.066146 0.0055,-0.033073 0.0055,-0.071658 0,-0.016536 -0.0055,-0.033073 0,-0.016536 0,-0.027561 -0.01102,-0.099219 -0.01654,-0.2039495 0,-0.1047309 0,-0.2094617 -0.0055,-0.060634 -0.01102,-0.1267794 0,-0.066146 0,-0.1378037 0,-0.027561 0.0055,-0.060634 0.0055,-0.033073 0.0055,-0.066146 V 7.0441742 q -0.01102,-0.066146 -0.01102,-0.088194 0.0055,-0.022049 0.0055,-0.044097 0,-0.049609 -0.01102,-0.093707 -0.0055,-0.049609 -0.0055,-0.1047308 0,-0.038585 0.0055,-0.071658 0.01102,-0.038585 0.01102,-0.07717 0,-0.082682 -0.01102,-0.1598523 -0.0055,-0.07717 -0.0055,-0.1598523 V 5.77638 q 0,-0.038585 -0.0055,-0.07717 -0.0055,-0.038585 -0.0055,-0.082682 0.03307,-0.07717 0.06063,-0.07717 0.02756,-0.00551 0.04961,-0.022049 0.06063,0.011024 0.104731,-0.011024 0.07166,0.00551 0.0882,-0.016537 0.01102,0.011024 0.02756,0.011024 0.02205,-0.00551 0.03858,0 0.01654,-0.011024 0.02756,-0.022049 0.01102,-0.011024 0.03307,-0.022049 0.06063,-0.033073 0.07166,-0.038585 0.01102,-0.011024 0.02756,-0.022049 0.02756,0 0.03307,0.016536 0.01102,0.016537 0.03859,0.016537 0.01102,0.022049 0.02756,0.044097 0.01654,0.022049 0.03858,0.033073 0.0441,0.093706 0.104731,0.1598523 0.04961,0.1433158 0.110243,0.2756074 0.06615,0.1322916 0.137804,0.2645831 0,0.016536 0.0055,0.044097 0.0055,0.022049 0.01102,0.033073 0.02756,0.060634 0.07717,0.1598523 0.05512,0.093707 0.09371,0.1543402 0.01102,0.022049 0.02756,0.038585 0.01654,0.016536 0.02756,0.038585 0.01654,0.027561 0.02756,0.060634 0.01103,0.033073 0.02756,0.060634 0.02756,0.066146 0.06063,0.1322916 0.03858,0.060634 0.07717,0.1267794 0.01102,0.033073 0.02205,0.066146 0.01654,0.033073 0.03307,0.066146 0.0441,0.099219 0.07717,0.1543402 0.03858,0.049609 0.05512,0.1102429 0.03858,0.044097 0.06063,0.099219 0.02205,0.049609 0.06615,0.082682 0.0055,-0.027561 0.01102,-0.1598523 0.0055,-0.1378037 0.0055,-0.297656 0,-0.1598523 0,-0.3031682 0,-0.1433158 0,-0.1929252 0,-0.148828 -0.0055,-0.2921439 -0.0055,-0.148828 -0.0055,-0.2921438 0,-0.1157552 0,-0.2315103 0.0055,-0.1212672 0.01103,-0.2370224 0.0055,-0.060634 0,-0.1102429 0,-0.055122 0.0055,-0.110243 0.0055,-0.027561 0.02205,-0.055121 0.01654,-0.027561 0.02756,-0.055122 0.07166,-0.011024 0.110243,0.027561 0.03307,-0.016536 0.07717,-0.016536 0.04961,0 0.08268,-0.00551 0.0441,-0.00551 0.04961,-0.00551 0.0055,-0.00551 0.01654,-0.00551 0.02205,0.011024 0.03858,0.016536 0.02205,0.00551 0.04961,0.016536 0.04961,-0.016536 0.08268,0.00551 z"
     id="text1"
     style="display:inline;font-weight:bold;font-size:5.64444px;font-family:'Caesar Dressing';-inkscape-font-specification:'Caesar Dressing Bold';fill:#fffff0;stroke-width:0.264583"
     aria-label="OMEN"
     inkscape:label="LOGO_TEXT_2" />
  <g
     inkscape:groupmode="layer"
     id="layer1"
     inkscape:label="components"
     style="display:none">
    <circle
       style="fill:#00ff00;fill-opacity:1;stroke-width:0.288914"
       id="path2"
       cx="7.6199999"
       cy="110.23333"
       inkscape:label="RESET"
       r="4" />
    <circle
       style="fill:#00ff00;fill-opacity:1;stroke-width:0.288914"
       id="circle3"
       cx="7.6474323"
       cy="92.5"
       inkscape:label="CLOCK"
       r="4" />
    <circle
       style="fill:#ff0000;fill-opacity:1;stroke-width:0.132291"
       id="path5"
       cx="7.6198645"
       cy="18"
       r="4"
       inkscape:label="ALPHA" />
    <circle
       style="fill:#ff0000;fill-opacity:1;stroke-width:0.132291"
       id="circle5"
       cx="7.6198645"
       cy="30"
       r="4"
       inkscape:label="BETA" />
    <circle
       style="fill:#ff0000;fill-opacity:1;stroke-width:0.132291"
       id="circle6"
       cx="7.6198645"
       cy="42"
       r="4"
       inkscape:label="GAMMA" />
    <circle
       style="fill:#ff0000;fill-opacity:1;stroke-width:0.132291"
       id="circle7"
       cx="7.6198645"
       cy="54"
       r="4"
       inkscape:label="DELTA" />
    <circle
       style="fill:#ff0000;fill-opacity:1;stroke-width:0.132291"
       id="circle8"
       cx="7.6198645"
       cy="66"
       r="4"
       inkscape:label="EPSILON" />
    <circle
       style="fill:#ff0000;fill-opacity:1;stroke-width:0.132291"
       id="circle9"
       cx="7.6198645"
       cy="78"
       r="4"
       inkscape:label="ZETA" />
  </g>
</svg>
